<?xml version="1.0" encoding="utf-8"?>
<!-- Generator: Adobe Illustrator 27.5.0, SVG Export Plug-In . SVG Version: 6.00 Build 0)  -->
<svg version="1.1" xmlns="http://www.w3.org/2000/svg" xmlns:xlink="http://www.w3.org/1999/xlink" x="0px" y="0px"
	 viewBox="0 0 650 500" style="enable-background:new 0 0 650 500;" xml:space="preserve">
<g id="BACKGROUND">
	<rect style="fill:#FFD4DE;" width="650" height="500"/>
</g>
<g id="OBJECTS">
	<g>
		<path style="fill:#FFE3EA;" d="M586.17,296.45c-11.25,17.94-31.97,28.52-52.98,31.11c-21.01,2.58-42.32-2.02-62.25-9.14
			c-21.7-7.76-42.75-18.63-65.7-20.8c-28.78-2.72-57.26,8.71-81.55,24.39c-12.62,8.14-24.52,17.49-37.94,24.23
			c-13.42,6.73-28.92,10.74-43.53,7.25c-31.92-7.61-47.42-46.51-78.27-57.72c-14.77-5.37-31-3.61-46.71-3.35
			c-15.71,0.26-32.77-1.62-44.25-12.34c-15.47-14.47-14.88-39.41-8.29-59.54c10.85-33.16,38.2-63.31,72.91-66.89
			c18.46-1.9,36.98,3.72,55.52,2.85c6.95-0.33,13.84-1.6,20.46-3.73c0.87-0.52,1.72-1.05,2.57-1.6
			c19.19-12.4,34.11-31.15,54.78-40.87c0.38-0.18,0.76-0.35,1.15-0.52c1.61-1.03,3.27-1.97,5-2.82c10.07-4.95,21.56-6.18,32.78-4.86
			c2.96-0.08,5.93-0.05,8.88,0.06c38.67,1.38,76.75,15.94,106.47,40.72c21.8,18.17,39.44,41.76,64.34,55.37
			c21.99,12.01,47.7,15.14,70.79,24.86c8.23,3.46,16.25,7.87,22.34,14.4C597.12,252.99,597.41,278.52,586.17,296.45z"/>
		<ellipse style="fill:#EFB9C7;" cx="323.525" cy="428.346" rx="285.062" ry="20.044"/>
	</g>
	<g>
		<path style="fill:#C6705C;" d="M105.978,178.939c-3.59,0.72-7.24,1.09-10.92,1.07c-2.09-0.01-4.33-0.2-6.03-1.39
			c0.34-0.86,0.76-1.69,1.26-2.46c-1.35,0.48-2.78,0.69-4.2,0.63c-2.79-0.12-5.56-1.27-7.62-3.46l-8.72-9.19
			c0.18-2.65,1.08-5.27,2.65-7.42c1.23-1.67,2.82-3.06,4.17-4.63c0.8-0.92,1.52-1.92,1.98-3.05c0.44-1.07,0.62-2.27,0.37-3.4h0.02
			c2.03,2.42,4.98,4.05,8.1,4.5l0.06-0.01c-0.01-0.04-0.02-0.09-0.02-0.13c-0.23-1.31-0.3-2.67,0.43-3.75
			c0.58-0.86,1.64-1.37,2.67-1.29c1.05,0.07,1.98,0.7,2.71,1.46c1.94,2.02,2.64,5.16,1.78,7.83l3.44,3.12l4.13,3.76
			C102.237,161.129,100.778,170.469,105.978,178.939z"/>
		<path style="fill:#303351;" d="M114.138,176.689c-2.67,0.94-5.39,1.7-8.16,2.25c-5.2-8.47-3.74-17.81-3.74-17.81
			s0.93-2.58,3.96-4.75c-0.27,1.45-0.4,2.83-0.4,4.12C105.797,171.049,113.888,176.519,114.138,176.689z"/>
		<path style="fill:#FFFFFF;" d="M145.858,153.449l-0.66,0.12c0.02-0.04,0.06-0.08,0.09-0.12
			C145.658,153.449,145.858,153.449,145.858,153.449z"/>
		<path style="fill:#303351;" d="M98.538,170.699c-0.16,1.7-0.48,3.41-1.23,4.94c-0.69,1.39-1.77,2.63-3.16,3.31
			c-0.66-1.23-1.28-2.47-1.86-3.73c0.69-0.41,1.34-0.9,1.94-1.47c3.11-2.94,4.15-7.29,3.04-11.15
			C98.628,164.979,98.807,167.929,98.538,170.699z"/>
		<path style="fill:#C6705C;" d="M145.288,153.449c-0.03,0.04-0.07,0.08-0.09,0.12c-0.39,0.47-0.77,0.95-1.13,1.42
			c-7.68,9.81-18.22,17.56-29.92,21.7c0,0,0,0-0.01,0c-0.25-0.17-8.34-5.64-8.34-16.19c0-1.29,0.13-2.67,0.4-4.12
			c2.23-1.6,5.6-2.97,10.57-2.93C127.228,153.539,142.188,153.469,145.288,153.449z"/>
		<path style="fill:#303351;" d="M98.108,157.369L98.108,157.369l-3.44-3.12c0.86-2.67,0.16-5.81-1.78-7.83
			c-0.73-0.76-1.66-1.39-2.71-1.46c-1.03-0.08-2.09,0.43-2.67,1.29c-0.73,1.08-0.66,2.44-0.43,3.75c0,0.04,0.01,0.09,0.02,0.13
			l-0.06,0.01c-3.12-0.45-6.07-2.08-8.1-4.5h-0.02c0.25,1.13,0.07,2.33-0.37,3.4c-0.46,1.13-1.18,2.13-1.98,3.05
			c-1.35,1.57-2.94,2.96-4.17,4.63c-1.57,2.15-2.47,4.77-2.65,7.42l8.72,9.19c2.06,2.19,4.83,3.34,7.62,3.46
			c-1.77,3.59,0.75,8.04,0.69,11.95c-0.01,1.05-0.22,2.06-0.74,3.01c-1.35,2.45-4.32,3.42-6.4,5.27c-3.41,3.03-4.21,8.21-7.58,11.29
			c-2.86,2.61-7.42,3.15-10.81,1.29c-3.47-1.91-5.64-5.94-9.44-7.06c-2.41-0.72-4.97-0.1-7.47,0.18c-2.5,0.28-5.35,0.08-7.01-1.8
			c-1.39-1.56-1.56-3.86-1.37-5.94c0.19-2.03,0.65-4.04,1.37-5.95c1.65-4.36,4.7-8.5,4.32-13.14c-0.13-1.62-0.68-3.17-1.11-4.74
			c-0.85-3.1-1.2-6.51,0.05-9.48c2.57-6.07,10.57-7.91,14.26-13.37c1.24-1.84,1.92-4,3-5.94c3.62-6.52,12.05-9.93,19.18-7.75
			l0.65,0.28c2.17-2.42,5.87-3.24,9.02-2.33c3.3,0.95,5.97,3.54,7.57,6.59c1.59,3.04,2.2,6.51,2.38,9.95
			C96.797,151.879,96.558,155.049,98.108,157.369z"/>
		<path style="fill:#FF8DA0;" d="M211.158,155.789c-0.03,0.86-0.11,1.73-0.26,2.58c-4.35,2.9-9.93,3.58-15.22,3.68
			c-2.32,0.04-4.67,0-6.96,0.47c-3.48,0.71-6.59,2.57-9.76,4.18c-3.56,1.8-7.28,3.31-11.17,4.14c-3.82,0.82-7.75,0.96-11.64,1.34
			c-0.67,0.06-1.37,0.14-1.95,0.48c-0.6,0.35-1.01,0.93-1.46,1.45c-0.43,0.49-0.9,0.94-1.42,1.35c4.01,1.91,7.95,4.1,11.01,7.3
			c7.23,7.56,8.19,19.02,12.86,28.39c1.71,3.44,3.95,6.61,5.67,10.05c4.71,9.36,5.32,20.93,0.7,30.33l-0.19-0.09
			c0,0-13.93-10.45-20.23-16.45c-3.9-3.71-7.11-8.15-11.24-11.6c-4.14-3.45-9.66-5.9-14.88-4.58c-1.64,0.42-3.18,1.19-4.81,1.67
			c-0.38-0.99-0.89-1.92-1.52-2.77c-2.17,0.14-4.37,0.16-6.53-0.16c-1.58-0.24-3.16-0.68-4.6-1.38c0.21,2.18,0.29,4.37,0.22,6.55
			c-16.48,3.37-44.56,11.14-43.23,24.73l-0.59,0.03c-0.59-0.39-1.16-0.81-1.71-1.24v-0.01c-3.4-2.66-6.19-6.1-8.11-9.97
			c-0.18-0.36-0.35-0.72-0.52-1.09v-0.01c0.19-1.34,0.48-2.67,1.25-3.77c1.73-2.48,5.16-2.87,8.15-3.29
			c0.75-0.1,1.51-0.23,2.14-0.62c0.56-0.34,0.99-0.87,1.41-1.37c1.66-1.98,3.51-3.84,5.73-5.18c2.21-1.33,4.83-2.1,7.4-1.76
			c-0.19-2.8,1-5.67,3.12-7.51c-3.95-6.92-5.9-14.95-5.61-22.91c0.05-1.53,0.19-3.06,0.41-4.57c0.28-1.89,0.7-3.79,1.41-5.56
			c1.7,1.19,3.94,1.38,6.03,1.39c3.68,0.02,7.33-0.35,10.92-1.07c2.77-0.55,5.49-1.31,8.16-2.25c0.01,0,0.01,0,0.01,0
			c11.7-4.14,22.24-11.89,29.92-21.7c0.36-0.47,0.74-0.95,1.13-1.42c0.02-0.04,0.06-0.08,0.09-0.12c2.18-2.67,4.77-5.21,8.07-4.98
			c2.37,0.17,4.54,1.82,6.9,1.55c2.29-0.26,4.02-2.26,6.25-2.84c3.22-0.83,6.37,1.43,9.66,1.93c3.44,0.52,6.83-0.92,10.13-2.04
			c4.37-1.49,8.92-2.46,13.53-2.89c3.2-0.3,6.69-0.24,9.37,1.42c0.24,0.51,0.45,1.03,0.63,1.56
			C210.828,149.909,211.278,152.859,211.158,155.789z"/>
		<path style="fill:#FFAC6E;" d="M181.367,251.439c-1.76,2.27-4,4.13-6.58,5.65c-18.12,10.66-52.89,4.27-53.66,4.12
			c-0.01,0-0.01,0-0.01,0c-1.49-2.04-3.03-3.98-4.59-5.74c-12.69,2.06-19.94,13.4-22.57,18.42c-8.62-8.08-15.97-16.48-18.71-23.55
			c-0.38-0.99-0.61-1.95-0.7-2.89c-1.33-13.59,26.75-21.36,43.23-24.73c6.78-1.39,11.6-2.03,11.6-2.03
			c0.28-0.06,0.56-0.13,0.83-0.21c1.63-0.48,3.17-1.25,4.81-1.67c5.22-1.32,10.74,1.13,14.88,4.58c4.13,3.45,7.34,7.89,11.24,11.6
			C167.438,240.989,181.367,251.439,181.367,251.439z"/>
		<path style="fill:#FC9B59;" d="M154.108,312.049c0,0,8.62,13,10.29,41.75c-8,4.88-17.55,7.22-26.89,6.52
			c-6.75-27.91-16.38-99.11-16.38-99.11c0.9,1.23,1.78,2.5,2.64,3.79c-0.87-1.81-1.75-3.15-2.64-3.79
			c0.77,0.15,35.54,6.54,53.66-4.12L154.108,312.049z"/>
		<path style="fill:#C6705C;" d="M162.448,393.499c0,0-10.15,6.19-15.29,1.11c-1.57-2.16-5.46-16.92-9.65-34.29
			c9.34,0.7,18.89-1.64,26.89-6.52C165.028,364.709,164.668,377.899,162.448,393.499z"/>
		<path style="fill:#C6705C;" d="M244.148,138.699c-0.52,0.87-1.12,1.68-1.82,2.42c0.1-0.02,0.2-0.04,0.3-0.04
			c0.35-0.02,0.73,0.17,0.83,0.5c0.06,0.2,0,0.42-0.07,0.62c-0.32,0.9-1,1.61-1.7,2.27c-4.72,4.47-10.58,7.53-16.4,10.46
			c2.24,2.13,4.11,4.65,5.52,7.4c0.25,0.51,0.45,1.22,0,1.56c-0.35,0.26-0.84,0.1-1.24-0.08c-3.03-1.38-5.84-3.17-8.77-4.74
			c-2.93-1.56-6.05-2.91-9.35-3.27l-0.29-0.01c0.12-2.93-0.33-5.88-1.33-8.63c6.91-2.9,13-7.44,18.98-11.95
			c0.96-0.72,1.93-1.45,3.05-1.86c0.32,0.27,0.16,0.78-0.03,1.15c-1.62,3.12-3.72,5.99-6.19,8.49c3.46-1.96,6.94-3.9,10.5-5.66
			c1.04-0.51,2.09-1.01,3.21-1.31c0.14-0.04,0.29-0.07,0.43-0.01c0.28,0.13,0.24,0.54,0.14,0.84c-0.4,1.17-1.02,2.26-1.83,3.2
			c1.16-0.73,2.34-1.42,3.6-1.97c0.61-0.27,1.26-0.51,1.93-0.55c0.22-0.01,0.47,0,0.62,0.17
			C244.497,137.959,244.328,138.389,244.148,138.699z"/>
		<path style="fill:#C6705C;" d="M72.247,246.229v0.01c-0.3,1.1-0.93,2.12-1.81,2.85c-0.92,0.77-2.09,1.24-3.29,1.31
			c-0.57,2.82-2.38,5.38-4.9,6.77c-0.53,0.29-1.12,0.54-1.73,0.49c-0.55-0.05-1.05-0.34-1.52-0.65c-1.52-1.02-2.89-2.27-4.05-3.7
			l-0.02-0.01c-0.2,0.42-0.43,0.83-0.74,1.18c-0.27,0.3-0.71,0.55-1.06,0.35c-0.21-0.13-0.3-0.39-0.37-0.62
			c-0.24-0.82-0.43-1.66-0.54-2.5c-0.98-0.37-1.77-1.3-2.12-2.32c-0.47-1.38-0.3-2.88-0.09-4.33c0.23-1.49,0.52-3.04,1.41-4.26
			c0.69-0.94,1.67-1.61,2.71-2.14c3.07-1.57,6.58-2,10.01-2.4C66.057,240.129,68.848,243.569,72.247,246.229z"/>
		<path style="fill:#C6705C;" d="M133.818,305.189c0,0-4.3-2.87-10.59-7.45c-8.1-5.91-19.5-14.67-29.27-23.85
			c2.63-5.02,9.88-16.36,22.57-18.42c1.56,1.76,3.1,3.7,4.59,5.74c0,0,0,0,0.01,0c9.31,12.75,16.76,29.34,16.76,29.34
			C141.418,304.639,133.818,305.189,133.818,305.189z"/>
		<path style="fill:#303351;" d="M117.392,215.854c-6.481-1.839-12.082-6.318-15.429-12.152c-0.953-1.661-1.708-3.419-2.259-5.252
			c-0.185-0.615-1.15-0.353-0.964,0.266c2.014,6.693,6.75,12.451,12.86,15.828c1.748,0.966,3.606,1.73,5.527,2.275
			C117.746,216.994,118.011,216.03,117.392,215.854z"/>
		<path style="fill:#303351;" d="M152.812,161.205c-1.384,4.079-2.768,8.159-4.152,12.238c-0.207,0.611,0.758,0.873,0.964,0.266
			c1.384-4.079,2.768-8.159,4.152-12.238C153.984,160.86,153.018,160.598,152.812,161.205z"/>
		<path style="fill:#303351;" d="M161.013,160.923c-3.105,3.335-6.21,6.671-9.315,10.006c-0.438,0.471,0.267,1.179,0.707,0.707
			c3.105-3.335,6.21-6.671,9.315-10.006C162.158,161.16,161.452,160.451,161.013,160.923z"/>
		<path style="fill:#303351;" d="M151.741,263.143c-8.036,0.957-16.21,0.656-24.146-0.936c-2.273-0.456-4.524-1.018-6.747-1.676
			c-0.618-0.183-0.883,0.782-0.266,0.964c7.843,2.32,16.049,3.399,24.226,3.163c2.318-0.067,4.63-0.242,6.933-0.516
			C152.372,264.068,152.38,263.067,151.741,263.143z"/>
		<path style="fill:#303351;" d="M179.905,251.957c-5.787,5.431-13.325,8.893-21.222,9.716c-0.634,0.066-0.64,1.067,0,1
			c8.172-0.852,15.935-4.385,21.929-10.009C181.083,252.223,180.375,251.517,179.905,251.957z"/>
		<path style="fill:#303351;" d="M126.929,269.515c-5.15-8.778-10.816-18.198-20.466-22.585c-2.481-1.128-5.112-1.845-7.833-2.044
			c-0.642-0.047-0.639,0.953,0,1c10.159,0.742,17.674,8.705,22.924,16.725c1.584,2.42,3.049,4.914,4.512,7.408
			C126.391,270.575,127.255,270.072,126.929,269.515z"/>
		<path style="fill:#303351;" d="M82.926,242.246c-0.201-0.608-1.167-0.348-0.964,0.266c1.431,4.343,1.289,9.052-0.387,13.305
			c-0.236,0.599,0.731,0.859,0.964,0.266C84.273,251.681,84.406,246.738,82.926,242.246z"/>
		<path style="fill:#303351;" d="M66.345,248.178c-0.442-0.228-0.964-0.255-1.437-0.117c0.019-0.705-0.108-1.396-0.627-1.941
			c-0.551-0.578-1.392-0.674-2.077-0.358c-0.148-0.211-0.296-0.423-0.444-0.634c1.604-1.169,3.504-2.972,3.113-5.12
			c-0.115-0.632-1.079-0.364-0.964,0.266c0.218,1.194-0.744,2.255-1.53,3.026c-0.784,0.769-1.679,1.412-2.651,1.921
			c-0.981,0.513-2.004,0.819-3.077,1.066c-1.018,0.234-1.54,0.772-1.674,1.818c-0.167,1.295-0.274,2.601-0.41,3.9
			c-0.059,0.565-0.03,1.422-0.478,1.849c-0.783,0.745-1.104-0.509-1.174-1.077c-0.314-2.57-0.582-5.146-0.874-7.718
			c-0.072-0.632-1.072-0.639-1,0c0.273,2.412,0.546,4.824,0.819,7.236c0.103,0.908,0.143,2.023,1.011,2.566
			c0.737,0.461,1.648,0.134,2.124-0.541c0.594-0.843,0.546-2.073,0.649-3.055l0.181-1.73c0.056-0.536-0.021-1.455,0.297-1.91
			c0.267-0.382,0.953-0.397,1.368-0.498c0.52-0.127,1.031-0.291,1.529-0.488c0.664-0.264,1.294-0.599,1.902-0.971
			c0.192,0.275,0.385,0.55,0.577,0.825c-1.59,1.962-3.18,3.923-4.77,5.885c-0.17,0.21-0.205,0.502,0,0.707
			c0.176,0.176,0.536,0.211,0.707,0c1.633-2.014,3.265-4.029,4.898-6.043c0.066-0.082,0.104-0.177,0.123-0.275
			c0.37-0.305,0.914-0.231,1.197,0.155c0.38,0.519,0.293,1.225,0.199,1.832c-0.022,0.035-0.046,0.068-0.062,0.107
			c-1.019,2.42-2.443,4.67-4.18,6.636c-0.425,0.481,0.28,1.191,0.707,0.707c1.785-2.02,3.216-4.3,4.292-6.767
			c0.019-0.015,0.042-0.025,0.057-0.045c0.275-0.35,0.747-0.542,1.176-0.349c0.416,0.187,0.609,0.694,0.494,1.119
			c-0.168,0.622,0.797,0.888,0.964,0.266C67.53,249.572,67.146,248.591,66.345,248.178z"/>
		<path style="fill:#303351;" d="M98.068,162.556c-0.117-0.632-1.081-0.364-0.964,0.266c1.01,5.445-1.96,10.978-7.078,13.106
			c-0.586,0.244-0.329,1.211,0.266,0.964C95.943,174.543,99.187,168.588,98.068,162.556z"/>
		<path style="fill:#303351;" d="M77.11,135.494c-1.471-2.742-4.63-4.028-7.637-3.937c-3.583,0.109-6.7,2.232-9.122,4.724
			c-2.783,2.864-4.805,6.352-7.487,9.302c-2.827,3.11-6.522,4.912-9.933,7.263c-2.902,2-5.71,4.74-6.494,8.309
			c-0.402,1.832-0.111,3.637,0.493,5.39c0.633,1.836,1.523,3.616,1.76,5.565c0.41,3.36-0.921,6.638-2.206,9.667
			c-1.287,3.034-2.735,6.114-2.978,9.448c-0.245,3.357,1.055,6.667,3.617,8.876c2.712,2.339,6.507,3.073,9.918,1.995
			c0.859-0.272,1.678-0.658,2.439-1.139c0.543-0.343,0.041-1.209-0.505-0.863c-2.999,1.896-6.954,2.019-9.995,0.14
			c-2.808-1.735-4.505-4.857-4.507-8.144c-0.001-3.172,1.326-6.182,2.548-9.046c1.211-2.835,2.495-5.738,2.711-8.853
			c0.112-1.62-0.143-3.205-0.661-4.739c-0.593-1.755-1.444-3.447-1.742-5.289c-0.58-3.58,1.643-6.795,4.232-9.026
			c2.878-2.481,6.425-4.033,9.399-6.389c2.987-2.366,5.094-5.562,7.383-8.558c2.161-2.829,4.719-5.712,8.131-7.011
			c2.731-1.039,6.187-0.852,8.458,1.15c0.541,0.477,0.974,1.036,1.314,1.67C76.551,136.566,77.414,136.062,77.11,135.494z"/>
		<path style="fill:#303351;" d="M89.405,189.867c-0.329-2.27-1.727-4.156-2.922-6.041c-1.207-1.905-2.408-4.193-1.59-6.478
			c0.217-0.607-0.748-0.868-0.964-0.266c-1.345,3.755,1.783,6.987,3.43,10.034c0.914,1.691,1.618,3.777,0.64,5.599
			c-0.833,1.552-2.454,2.46-3.964,3.241c-1.582,0.818-3.231,1.616-4.403,3.002c-1.069,1.264-1.699,2.797-2.313,4.315
			c-0.652,1.609-1.321,3.237-2.526,4.521c-1.184,1.262-2.724,2.167-4.397,2.603c-3.787,0.986-7.856-0.786-9.864-4.112
			c-0.332-0.55-1.197-0.048-0.863,0.505c1.79,2.965,5.116,4.913,8.599,4.89c3.549-0.023,6.92-2.044,8.655-5.127
			c0.883-1.569,1.397-3.309,2.189-4.921c0.879-1.789,2.116-3.025,3.857-3.99c1.616-0.896,3.353-1.61,4.71-2.902
			C89.031,193.451,89.675,191.725,89.405,189.867z"/>
		<path style="fill:#303351;" d="M130.708,303.872c0,0,7.738,11.514,9.574,19.23c1.836,7.715,3.44,12.911,7.627,14.276
			c5.738,1.871,7.627-4.199,7.627-4.199l-3.899-42.671c0,0-3.996-6.908-14.56-1.525C137.075,288.983,137.767,298.89,130.708,303.872
			z"/>
		<path style="fill:#303351;" d="M164.878,408.069l-11.46,25.19h-18.77c-2.29-9.11,8.17-12.93,8.17-12.93l0.35-3.23l2.71-25.02
			c6.87,5.25,16.11,1.64,16.11,1.64C170.301,396.611,164.878,408.069,164.878,408.069z"/>
		<path style="fill:#FFFFFF;" d="M149.986,298.535c-0.408-3.336-0.815-6.672-1.223-10.008c-0.077-0.631-1.078-0.638-1,0
			c1.444,11.82,2.889,23.641,4.333,35.461l1.223,10.008c0.077,0.631,1.078,0.638,1,0
			C152.874,322.176,151.43,310.355,149.986,298.535z"/>
		<path style="fill:#FFFFFF;" d="M151.616,328.126c-2.996,0.661-5.505,2.849-6.642,5.684c-0.101,0.251,0.11,0.549,0.349,0.615
			c0.285,0.078,0.514-0.098,0.615-0.349c1.009-2.514,3.312-4.405,5.944-4.986C152.51,328.951,152.244,327.987,151.616,328.126z"/>
		<path style="fill:#FFFFFF;" d="M141.963,298.012c-1.293-1.23-2.871,0.624-3.623,1.557c-2.281,2.83-3.574,6.358-3.693,9.983
			c-0.508-0.02-1.02-0.117-1.501-0.212c-0.977-0.194-1.952-0.394-2.929-0.591c-0.955-0.193-1.908-0.409-2.868-0.575
			c-0.807-0.14-1.684-0.22-2.434,0.183c-1.189,0.639-1.539,2.188-0.42,3.079c0.619,0.493,1.415,0.649,2.179,0.756
			c0.939,0.132,1.886,0.198,2.835,0.186c2.08-0.025,4.146-0.4,6.106-1.091c0.407-0.144,0.415-0.625,0.193-0.86
			c1.414-0.359,2.252-1.599,2.877-2.851c0.928-1.858,1.825-3.732,2.737-5.598C141.942,300.916,143.088,299.082,141.963,298.012z
			 M126.716,311.196c-0.604-0.091-1.601-0.23-1.872-0.878c-0.19-0.454,0.182-0.902,0.576-1.097c0.474-0.235,1.052-0.179,1.556-0.101
			c0.997,0.156,1.987,0.394,2.975,0.593c1.011,0.204,2.021,0.412,3.033,0.612c0.548,0.108,1.105,0.199,1.663,0.216
			c-1.63,0.506-3.313,0.804-5.026,0.835C128.652,311.394,127.675,311.341,126.716,311.196z M141.243,300.031
			c-0.322,0.878-0.819,1.719-1.229,2.559c-0.472,0.967-0.945,1.934-1.417,2.9c-0.637,1.305-1.285,3.347-2.779,3.908
			c-0.055,0.021-0.114,0.022-0.17,0.039c0.133-3.124,1.182-6.17,3.041-8.696c0.482-0.655,1.054-1.464,1.752-1.905
			C141.502,298.167,141.492,299.352,141.243,300.031z"/>
		<path style="fill:#FFFFFF;" d="M163.577,404.089c-2.426,5.186-4.852,10.372-7.279,15.557c-1.213,2.593-2.426,5.186-3.639,7.779
			c-0.524,1.121-0.959,2.345-2.346,2.524c-1.317,0.17-2.699,0.095-4.026,0.13c-3.228,0.085-6.456,0.171-9.684,0.256
			c-0.642,0.017-0.645,1.017,0,1c2.98-0.079,5.96-0.158,8.94-0.237c1.456-0.039,2.918-0.038,4.372-0.119
			c1.128-0.063,2.063-0.404,2.729-1.355c0.756-1.08,1.22-2.422,1.776-3.611c0.633-1.353,1.266-2.706,1.899-4.058
			c1.266-2.706,2.532-5.411,3.798-8.117c1.442-3.081,2.883-6.163,4.325-9.244C164.711,404.014,163.849,403.506,163.577,404.089z"/>
		<path style="fill:#FFFFFF;" d="M161.047,396.864c-0.841-0.369-2.035-0.064-2.901,0.095c-2.154,0.394-4.236,1.231-6.08,2.41
			c-1.702,1.088-3.179,2.477-4.398,4.079c-1.234-2.976-3.608-5.677-6.626-6.847c-0.829-0.321-1.775-0.411-2.578,0.033
			c-0.684,0.378-1.12,1.075-1.058,1.865c0.067,0.863,0.712,1.561,1.334,2.1c0.725,0.628,1.501,1.206,2.301,1.735
			c1.923,1.273,4.036,2.244,6.244,2.906c0.254,0.076,0.442-0.045,0.54-0.223c2.475-0.526,4.887-1.291,7.213-2.29
			c1.161-0.499,2.298-1.057,3.403-1.671c0.553-0.307,1.097-0.628,1.633-0.963c0.474-0.296,0.996-0.586,1.351-1.026
			C161.996,398.36,161.948,397.259,161.047,396.864z M138.969,397.496c0.94-0.506,2.075,0.143,2.887,0.624
			c0.841,0.498,1.611,1.102,2.302,1.794c1.17,1.172,2.062,2.578,2.661,4.115c-1.725-0.581-3.378-1.349-4.917-2.328
			C141.054,401.162,136.901,398.611,138.969,397.496z M160.121,398.877c-1.75,1.174-3.654,2.156-5.588,2.986
			c-1.907,0.818-3.888,1.454-5.905,1.941c2-2.533,4.766-4.436,7.852-5.402c0.891-0.279,1.809-0.487,2.736-0.602
			c0.357-0.044,0.916-0.176,1.27-0.069C161.25,397.959,160.46,398.65,160.121,398.877z"/>
		<path style="fill:#FFFFFF;" d="M150.909,414.555c-0.118-0.928-0.985-1.252-1.819-1.153c-0.735,0.087-1.468,0.227-2.199,0.374
			c0.561-0.683,1.123-1.367,1.684-2.05c0.444-0.541,0.889-1.082,1.333-1.623c0.324-0.394,0.718-0.804,0.803-1.328
			c0.169-1.046-0.895-1.396-1.72-1.12c-1.178,0.393-2.316,1.081-3.436,1.615c-0.581,0.277-0.074,1.14,0.505,0.863
			c0.824-0.393,1.647-0.786,2.471-1.179c0.11-0.052,1.02-0.588,1.172-0.41c0.182,0.214-0.611,0.985-0.712,1.108
			c-1.24,1.509-2.48,3.018-3.72,4.528c-0.322,0.392-0.02,0.929,0.486,0.836c0.855-0.157,1.711-0.315,2.566-0.472
			c0.37-0.068,0.782-0.203,1.162-0.168c0.539,0.05,0.491,0.526,0.252,0.897c-0.448,0.697-1.175,1.293-1.742,1.895
			c-0.594,0.631-1.187,1.261-1.781,1.892c-0.441,0.468,0.265,1.177,0.707,0.707c0.841-0.893,1.682-1.787,2.523-2.68
			C150.1,416.39,151.045,415.619,150.909,414.555z"/>
		<path style="fill:#303351;" d="M152.283,197.832c-7.632,4.44-14.616,9.959-20.699,16.36c-0.443,0.466,0.263,1.175,0.707,0.707
			c6.028-6.342,12.934-11.803,20.497-16.203C153.344,198.372,152.841,197.507,152.283,197.832z"/>
		<path style="fill:#303351;" d="M157.758,203.021c-6.176,2.845-12.352,5.69-18.528,8.536c-0.584,0.269-0.076,1.131,0.505,0.863
			c6.176-2.845,12.352-5.69,18.528-8.536C158.846,203.616,158.339,202.754,157.758,203.021z"/>
		<g>
			<path style="opacity:0.8;fill:#2E333F;" d="M81.429,164.159c0.693,0.594,1.309,1.312,1.805,2.086
				c0.503,0.767,0.887,1.618,1.15,2.499c0.242,0.821,0.46,1.776,0.287,2.634c-0.143,0.756-0.737,1.45-1.542,1.51
				c-0.946,0.07-1.444-0.798-1.659-1.606c-0.333-1.249-1.385-4.925-1.594-5.505c-0.158-0.426-0.391-0.884-0.289-1.35
				c0.097-0.419,0.459-0.744,0.896-0.734C80.859,163.696,81.161,163.931,81.429,164.159z"/>
			<circle style="opacity:0.8;fill:#2E333F;" cx="89.694" cy="159.547" r="2.933"/>
			<path style="fill:#303351;" d="M81.915,161.852c1.939-0.249,3.409-1.943,3.417-3.872c0-0.114-0.009-0.219-0.018-0.333
				c-0.018-0.238-0.16-0.447-0.378-0.553c-0.218-0.096-0.484-0.078-0.684,0.054c-0.172,0.123-0.267,0.331-0.249,0.55
				c0.009,0.086,0.009,0.162,0.009,0.247c-0.002,0.599-0.185,1.168-0.539,1.622c-0.411,0.54-1.068,0.898-1.79,0.99
				c-0.171,0.018-0.324,0.113-0.419,0.255c-0.115,0.161-0.153,0.36-0.107,0.541C81.232,161.688,81.545,161.889,81.915,161.852z"/>
			<path style="fill:#303351;" d="M78.041,165.156c-0.228-0.115-0.494-0.097-0.684,0.035c-0.181,0.123-0.277,0.331-0.268,0.55
				c0,0.057,0.009,0.114,0.009,0.171c-0.002,0.542-0.213,1.063-0.585,1.451c-0.41,0.435-0.962,0.661-1.551,0.659
				c-0.371-0.001-0.657,0.273-0.658,0.653c-0.01,0.171,0.056,0.314,0.15,0.438c0.123,0.143,0.294,0.22,0.493,0.221
				c0.96,0.013,1.921-0.391,2.551-1.073c0.582-0.634,0.909-1.469,0.912-2.315l0.001-0.238
				C78.391,165.461,78.25,165.261,78.041,165.156z"/>
			<path style="fill:#FFFFFF;" d="M90.363,164.997c0.537,1.049,0.669,2.329-0.08,3.308c-0.384,0.5-0.947,0.83-1.526,1.052
				c-0.54,0.195-1.187,0.392-1.754,0.285c-0.594-0.12-0.977-0.655-0.951-1.247c0.031-0.666,0.483-1.127,0.977-1.523
				c0.053-0.042,0.099-0.076,0.159-0.098c-0.124-0.38-0.214-0.768-0.21-1.171c-0.009-0.625,0.114-1.36,0.553-1.848
				c0.419-0.467,1.089-0.537,1.627-0.235C89.696,163.837,90.081,164.453,90.363,164.997z"/>
			<path style="fill:#303351;" d="M75.03,163.402c-0.456-0.24-0.954-0.096-1.238,0.325c-0.485,0.72-0.902,1.483-1.247,2.28
				c-0.098,0.225-0.158,0.427-0.096,0.675c0.054,0.218,0.219,0.456,0.422,0.563c0.204,0.107,0.448,0.164,0.675,0.096
				c0.217-0.064,0.468-0.204,0.563-0.422c0.345-0.797,0.762-1.56,1.247-2.28c0.122-0.181,0.148-0.468,0.097-0.675
				C75.398,163.747,75.232,163.509,75.03,163.402z"/>
			<path style="fill:#303351;" d="M82.189,155.314c-0.907,0.477-1.78,1.015-2.613,1.612c-0.205,0.147-0.366,0.299-0.435,0.552
				c-0.058,0.21-0.035,0.489,0.08,0.677c0.124,0.203,0.314,0.381,0.552,0.435c0.214,0.049,0.49,0.054,0.677-0.08
				c0.833-0.597,1.706-1.135,2.613-1.612c0.419-0.22,0.606-0.819,0.355-1.229C83.158,155.244,82.637,155.078,82.189,155.314z"/>
		</g>
		<path style="fill:#303351;" d="M242.037,141.045c-3.963,1.943-7.926,3.885-11.889,5.828c-0.578,0.283-0.072,1.146,0.505,0.863
			c3.963-1.943,7.926-3.885,11.889-5.828C243.119,141.626,242.613,140.763,242.037,141.045z"/>
		<path style="fill:#303351;" d="M237.357,139.465l-8.9,4.787c-0.567,0.305-0.063,1.169,0.505,0.863l8.9-4.787
			C238.429,140.023,237.924,139.16,237.357,139.465z"/>
	</g>
	<g>
		<path style="fill:#FFC69F;" d="M448.023,131.845c-1.411,3.02-2.601,6.117-3.604,9.28c-0.066,0.198-0.132,0.397-0.187,0.595
			c-3.251,0.529-6.635,0.176-9.698-1.025c-4.552,0.066-9.114-0.209-13.633-0.793c-0.992-0.132-2.017-0.298-2.821-0.871
			c-0.331-0.231-0.639-0.606-0.54-0.992c0.099-0.397,0.54-0.584,0.937-0.705c2.458-0.716,6.524-0.871,9.081-0.727
			c-3.141-0.959-7.737-2.381-10.889-3.339c-1.576-0.474-3.163-0.959-4.596-1.774c-0.474-0.276-0.992-0.694-0.937-1.234
			c0.022-0.375,0.32-0.683,0.661-0.827s0.727-0.154,1.102-0.154c4.684-0.022,9.236,1.51,13.655,3.064l0.011-0.022
			c-4.199-2.182-8.442-4.386-12.046-7.45c-0.264-0.231-0.529-0.463-0.705-0.76c-0.165-0.298-0.231-0.683-0.077-0.992
			c0.165-0.32,0.529-0.496,0.893-0.529c0.364-0.022,0.727,0.066,1.069,0.165c4.981,1.433,9.787,3.714,14.261,6.227
			c-4.276-2.48-8.277-5.455-11.881-8.861c-0.198-0.198-0.419-0.397-0.529-0.661c-0.121-0.264-0.121-0.595,0.077-0.805
			c0.198-0.209,0.529-0.242,0.816-0.22c1.201,0.066,2.325,0.584,3.405,1.113c4.452,2.182,8.795,4.618,13.049,7.186
			c-2.612-2.171-4.871-4.75-6.679-7.626c-0.187-0.287-0.375-0.639-0.22-0.959c0.11-0.243,0.408-0.364,0.683-0.353
			s0.54,0.143,0.782,0.264c3.923,1.984,7.384,4.772,10.801,7.527C442.855,127.679,445.444,129.762,448.023,131.845z"/>
		<path style="fill:#FFC69F;" d="M535.149,396.548l1.543,11.746c0,0,17.811,2.334,15.793-8.624
			c-0.204-1.106-3.158-9.377-3.158-9.377L535.149,396.548z"/>
		<path style="fill:#FFC69F;" d="M558.068,160.832c-0.13-0.09-0.26-0.16-0.39-0.23c0.41,3.98-0.44,8.08-2.42,11.56
			c-0.87,1.55-2,3-3.49,3.97c-1.39,0.91-3.04,1.36-4.69,1.56c-3.03,0.37-6.46-0.19-8.38-2.57c-0.94-1.16-1.38-2.54-1.52-4.02
			c-0.18-1.85,0.1-3.84,0.44-5.69c-3.1-1.65-5.38-4.73-5.84-8.46l-0.4-3.23l-1.98-15.96c0.24-0.02,0.48-0.06,0.72-0.09
			c0.28-0.04,0.58-0.08,0.85,0.02c0.49,0.19,0.69,0.76,0.95,1.21c0.69,1.18,2.15,1.75,3.52,1.69c1.36-0.05,2.65-0.63,3.84-1.3
			c1.19-0.68,2.33-1.46,3.6-1.97c1.93-0.79,4.12-0.9,6.14-0.34c0.75,2.37,1.82,4.65,3.18,6.74l0.12,0.06
			c0.08-0.17,0.16-0.34,0.25-0.51c0.59-1.18,1.34-2.31,2.57-2.74c0.92-0.33,2.01-0.15,2.79,0.45c0.04,0.03,0.08,0.06,0.12,0.09
			c0.79,0.68,1.17,1.74,1.31,2.78c0.36,2.79-0.94,5.72-3.21,7.35c0.53,2.48,1.04,4.97,1.51,7.46
			C557.798,159.382,557.938,160.112,558.068,160.832z"/>
		<path style="fill:#303351;" d="M553.268,159.502c-0.32,2.71-1.92,5.19-3.77,7.25c-1.14,1.27-2.41,2.46-3.93,3.24
			c-1.38,0.71-2.99,1.06-4.51,0.78c0.2-1.37,0.45-2.74,0.72-4.1h0.01c0.79,0.09,1.6,0.08,2.43-0.02
			C548.448,166.132,551.858,163.262,553.268,159.502z"/>
		<path style="fill:#303351;" d="M559.168,132.422c-0.24,2.87-1.67,5.66-1.19,8.5l-0.05,0.06c-0.78-0.6-1.87-0.78-2.79-0.45
			c-1.23,0.43-1.98,1.56-2.57,2.74c-0.09,0.17-0.17,0.34-0.25,0.51l-0.12-0.06c-1.36-2.09-2.43-4.37-3.18-6.74
			c-2.02-0.56-4.21-0.45-6.14,0.34c-1.27,0.51-2.41,1.29-3.6,1.97c-1.19,0.67-2.48,1.25-3.84,1.3c-1.37,0.06-2.83-0.51-3.52-1.69
			c-0.26-0.45-0.46-1.02-0.95-1.21c-0.27-0.1-0.57-0.06-0.85-0.02c-0.24,0.03-0.48,0.07-0.72,0.09c-1.87,0.22-3.84,0.19-5.35-0.88
			s-2.24-3.03-2.08-4.87c0.17-1.83,1.13-3.53,2.42-4.85c0.46-0.46,0.97-0.92,1.13-1.55c0.32-1.24-0.87-2.36-0.99-3.63
			c-0.08-0.87,0.37-1.73,1.03-2.29c0.67-0.56,1.53-0.85,2.39-0.98c1.37-0.2,2.79-0.02,4.06,0.5c2.05,0.86,3.7,2.58,5.84,3.14
			c2.63,0.68,5.35-0.52,8.06-0.6c1.82-0.05,3.7,0.43,5.16,1.53c1.39,1.05,2.37,2.68,2.49,4.41c0.93-0.16,1.9-0.17,2.8,0.11
			c0.99,0.29,1.89,0.93,2.38,1.83C559.188,130.472,559.248,131.472,559.168,132.422z"/>
		<path style="fill:#FFC69F;" d="M604.438,205.652c-0.97,2.27-3.36,3.53-5.57,4.61c-2.59,1.27-5.18,2.53-7.77,3.8
			c-0.05,0.38-0.17,0.75-0.36,1.08c-2.28-3.5-4.34-7.13-6.17-10.88c0.2-3.39,1.49-6.7,3.64-9.32c0.79-0.96,1.72-1.85,2.87-2.3
			c0.86-0.33,1.88-0.38,2.73-0.04c0.35-0.38,0.72-0.72,1.13-1.01c0.8-0.55,1.83-0.85,2.76-0.55c0.54,0.18,1,0.54,1.43,0.91
			c2.53,2.2,4.4,5.15,5.31,8.37C604.938,202.062,605.148,203.992,604.438,205.652z"/>
		<path style="fill:#FFAC6E;" d="M590.74,215.14c-0.44,0.85-1.24,1.52-2.18,1.75c-0.37,0.09-0.79,0.14-1.05,0.41
			c-0.25,0.27-0.28,0.67-0.33,1.04c-0.34,2.42-2.28,4.33-4.36,5.62c-2.09,1.29-4.43,2.16-6.4,3.61c-1.96,1.45-3.48,3.42-5.36,4.96
			c-2.46,2.02-5.52,3.27-8.68,3.57c-2.54,0.23-5.25-0.21-7.29-1.7c-0.24-0.18-0.48-0.37-0.7-0.58c-2.18-2.04-2.93-5.15-3.4-8.1
			c-1.01-6.39-1.2-12.87-1.37-19.34c-1.53,1.21-3.35,2.07-5.26,2.46c-0.17,0.03-0.36,0.07-0.49,0.19c-0.18,0.16-0.22,0.42-0.27,0.66
			c-0.28,1.31-1.31,2.34-2.44,3.07c-1.13,0.73-2.39,1.24-3.52,1.98c-0.15,0.09-0.3,0.21-0.36,0.37c-0.1,0.28,0.08,0.57,0.25,0.81
			c1.6,2.37,1.6,5.71,0.03,8.1c-17.16-8.24-36.42-12.46-55.2-16.45l-0.12,0.1c-0.05-0.06-0.1-0.13-0.15-0.2
			c-0.91-1.28-1.09-3.04-0.52-4.51c0.63-1.65,2.11-2.91,3.79-3.44c0.64-0.21,1.47-0.47,1.53-1.14c0.03-0.33-0.15-0.64-0.29-0.94
			c-1.55-3.11,0.05-6.9,2.3-9.55c2.24-2.65,5.15-4.79,6.83-7.82c1.31-2.36,1.84-5.2,3.32-7.39c-3.92-0.51-7.7-2.05-10.84-4.44
			c-1.84-1.4-3.47-3.08-5.45-4.25c-5.29-3.15-12.43-2.38-17.24-6.22c-2.34-1.86-3.86-4.64-6.29-6.39c-2.83-2.04-6.48-2.41-9.85-3.34
			c-3.14-0.87-6.46-2.66-7.51-5.68c0.04-0.14,0.08-0.28,0.13-0.41c0.05-0.18,0.11-0.36,0.17-0.54c0.91-2.87,1.99-5.68,3.27-8.42
			c0.05-0.12,0.1-0.24,0.16-0.36c0.37-0.81,0.76-1.61,1.17-2.41c4.82-0.92,9.98,0.02,14.16,2.6c1.01,0.62,1.98,1.34,3.11,1.67
			c1.88,0.56,3.89-0.02,5.84-0.28c3.57-0.48,7.29,0.17,10.49,1.83c1.91,0.99,3.67,2.34,5.75,2.9c3.15,0.84,6.5-0.27,9.75,0.07
			c6.9,0.73,11.68,7.72,18.46,9.23c2.97,0.67,6.08,0.21,9.1,0.6c3.02,0.39,6.28,2.04,6.98,5l0.97-0.12l0.4,3.23
			c0.46,3.73,2.74,6.81,5.84,8.46c-0.61,3.33-1.04,7.09,1.08,9.71c1.92,2.38,5.35,2.94,8.38,2.57c1.65-0.2,3.3-0.65,4.69-1.56
			c1.49-0.97,2.62-2.42,3.49-3.97c1.98-3.48,2.83-7.58,2.42-11.56c0.13,0.07,0.26,0.14,0.39,0.23c4.13,2.35,8.02,5.12,11.59,8.27
			c2.93,2.58,5.71,5.51,7.19,9.13c1.66,4.06,1.53,8.64,0.76,12.96c-0.73,4.16-2.01,8.2-2.76,12.34c0.51-0.04,1.01,0.06,1.45,0.35
			c0.18,0.12,0.36,0.28,0.58,0.3c0.31,0.03,0.57-0.21,0.8-0.42c1.92-1.65,5.22-1.3,6.75,0.72h0.13c0.01-0.07,0.01-0.15,0.01-0.22
			C586.4,208.01,588.46,211.64,590.74,215.14z"/>
		<path style="fill:#F47690;" d="M554.528,398.742c-6.9,4.09-15,6.12-23.02,5.81c-6.49-24.43-12.19-49.08-17.11-73.89
			c-11.26-26.61-22.07-53.41-32.45-80.38c3.79,2.59,8.33,4.1,12.8,5.33c13.01,3.58,26.51,5.38,40.01,5.34
			c-5.01,16.37-10.02,32.74-15.03,49.1c4.89,4.11,10.18,7.76,15.76,10.86c1.13-1.73,2.27-3.45,3.39-5.19
			C544.468,343.322,549.688,371.002,554.528,398.742z"/>
		<path style="fill:#303351;" d="M552.659,159.814c-1.609,3.456-4.993,6.01-8.803,6.463c-3.914,0.465-7.972-1.336-10.292-4.513
			c-0.376-0.514-1.244-0.016-0.863,0.505c1.977,2.706,5.008,4.519,8.334,4.967c3.267,0.439,6.53-0.561,9.093-2.607
			c1.444-1.152,2.615-2.636,3.394-4.31C553.793,159.739,552.931,159.231,552.659,159.814z"/>
		<path style="fill:#303351;" d="M547.06,119.593c-2.634-0.482-5.201,0.89-7.808,0.387c-2.421-0.467-4.375-2.185-6.706-2.924
			c-2.234-0.708-4.844-0.724-6.889,0.542c-1.719,1.065-3.025,2.996-2.958,5.071c0.041,1.268,0.676,2.53,0.196,3.78
			c-0.402,1.049-1.267,1.86-1.839,2.811c-1.142,1.896-1.068,4.324-0.027,6.248c1.193,2.206,3.614,3.503,6.062,3.71
			c2.646,0.224,5.219-0.895,7.197-2.591c0.489-0.42-0.221-1.124-0.707-0.707c-1.664,1.427-3.792,2.372-6.011,2.323
			c-2.035-0.044-4.136-0.977-5.325-2.669c-1.209-1.721-1.397-4.082-0.276-5.889c0.501-0.807,1.165-1.506,1.612-2.348
			c0.493-0.929,0.573-1.866,0.402-2.894c-0.179-1.074-0.425-2.046-0.096-3.119c0.281-0.916,0.858-1.726,1.579-2.35
			c1.695-1.468,4.093-1.657,6.197-1.128c2.146,0.54,3.922,1.904,5.965,2.697c1.005,0.39,2.059,0.581,3.137,0.529
			c1.175-0.056,2.324-0.337,3.485-0.502c2.435-0.344,4.832,0.334,6.498,2.207c1.63,1.832,2.039,4.483,1.247,6.771
			c-0.211,0.609,0.755,0.871,0.964,0.266C554.492,125.382,551.706,120.443,547.06,119.593z"/>
		<path style="fill:#303351;" d="M504.571,158.465c-1.734,3.883-3.469,7.766-5.203,11.649c-0.26,0.583,0.601,1.092,0.863,0.505
			c1.734-3.883,3.469-7.766,5.204-11.649C505.695,158.387,504.834,157.877,504.571,158.465z"/>
		<path style="fill:#303351;" d="M497.107,160.249c-0.046-0.638-1.046-0.643-1,0c0.246,3.431,0.492,6.862,0.737,10.293
			c0.046,0.638,1.046,0.643,1,0C497.599,167.111,497.353,163.68,497.107,160.249z"/>
		<path style="fill:#303351;" d="M467.258,149.845c-0.053-1.054-0.106-2.109-0.158-3.163c-0.121-2.421-0.242-4.842-0.364-7.263
			c-0.032-0.64-1.032-0.644-1,0c0.113,2.265,0.227,4.53,0.34,6.795l0.176,3.515c0.01,0.21,0.168,1.088-0.111,1.238
			c-0.346,0.186-0.925-0.618-1.108-0.832c-2.545-2.977-4.019-6.813-4.192-10.719c-0.028-0.641-1.028-0.644-1,0
			c0.156,3.538,1.3,7.011,3.324,9.922c0.641,0.921,2.198,3.471,3.595,2.406C467.344,151.298,467.29,150.5,467.258,149.845z"/>
		<path style="fill:#303351;" d="M560.346,195.281c-3.279,3.07-6.557,6.139-9.836,9.209c-0.471,0.441,0.237,1.147,0.707,0.707
			c3.279-3.07,6.557-6.139,9.836-9.209C561.524,195.547,560.815,194.841,560.346,195.281z"/>
		<path style="fill:#303351;" d="M559.417,200.866c-2.461,1.379-4.923,2.759-7.384,4.138c-0.561,0.315-0.058,1.179,0.505,0.863
			c2.461-1.379,4.923-2.759,7.385-4.138C560.483,201.415,559.979,200.551,559.417,200.866z"/>
		<path style="fill:#303351;" d="M527.602,213.568c-6.31-5.149-11.384-11.694-14.798-19.088c-0.269-0.584-1.132-0.076-0.863,0.505
			c3.445,7.46,8.588,14.095,14.955,19.29C527.39,214.678,528.102,213.975,527.602,213.568z"/>
		<path style="fill:#303351;" d="M532.297,208.449c-4.33-2.981-8.66-5.962-12.989-8.944c-0.531-0.366-1.032,0.5-0.505,0.863
			c4.33,2.981,8.66,5.962,12.989,8.944C532.324,209.678,532.825,208.812,532.297,208.449z"/>
		<path style="fill:#303351;" d="M573.512,203.709c-4.582,1.496-9.165,2.993-13.747,4.489c-0.609,0.199-0.348,1.165,0.266,0.964
			c4.582-1.496,9.165-2.993,13.747-4.489C574.387,204.475,574.126,203.509,573.512,203.709z"/>
		<path style="fill:#303351;" d="M601.566,195.581c-0.124-0.212-0.467-0.343-0.684-0.179c-1.188,0.892-2.375,1.784-3.563,2.676
			c-0.24-0.471-0.48-0.942-0.721-1.412c-0.117-0.23-0.235-0.46-0.352-0.69c1.127-0.863,2.253-1.727,3.38-2.59
			c0.214-0.164,0.328-0.43,0.179-0.684c-0.123-0.211-0.468-0.345-0.684-0.179c-1.111,0.852-2.223,1.703-3.334,2.555
			c-0.449-0.879-0.898-1.757-1.346-2.636c-0.293-0.573-1.156-0.068-0.863,0.505c1.041,2.038,2.085,4.075,3.123,6.114
			c0.197,0.386,0.584,0.99,0.343,1.44c-0.299,0.559-1.137-0.112-1.485-0.321c-0.955-0.574-1.91-1.149-2.865-1.724
			c-0.446-0.268-0.907,0.255-0.684,0.684c1.173,2.258,1.085,4.999-0.203,7.188c-0.327,0.556,0.537,1.06,0.863,0.505
			c1.201-2.041,1.451-4.485,0.785-6.715c0.801,0.516,1.614,1.033,2.461,1.41c1.003,0.446,2.078-0.013,2.178-1.177
			c0.042-0.487-0.121-0.938-0.324-1.371c1.205-0.905,2.41-1.81,3.615-2.716C601.603,196.103,601.714,195.833,601.566,195.581z"/>
		<path style="fill:#303351;" d="M603.479,203.787c-1.602,0.372-3.204,0.744-4.806,1.117c-0.773,0.18-1.545,0.37-2.32,0.539
			c-0.465,0.101-1.329,0.145-0.86-0.586c0.182-0.284,0.51-0.507,0.767-0.717c0.284-0.232,0.571-0.459,0.864-0.68
			c0.572-0.431,1.158-0.843,1.757-1.234c1.242-0.811,2.541-1.531,3.884-2.163c0.582-0.274,0.075-1.136-0.505-0.863
			c-2.447,1.153-4.74,2.608-6.826,4.331c-0.369,0.305-0.732,0.64-0.925,1.075c0-0.003,0.002-0.005,0.002-0.008
			c-0.001-0.082,0-0.165,0.005-0.247c0.002-0.037,0.006-0.074,0.009-0.112c0.002-0.02,0.001-0.019,0.001-0.026
			c0.001-0.007,0.001-0.004,0.004-0.019c0.025-0.147,0.057-0.293,0.101-0.436c0.024-0.079,0.052-0.156,0.081-0.233
			c0.004-0.011,0.004-0.011,0.004-0.012c0.002-0.005,0.002-0.005,0.006-0.014c0.019-0.041,0.037-0.082,0.057-0.122
			c0.07-0.141,0.149-0.277,0.238-0.407c0.021-0.031,0.043-0.061,0.065-0.092c0.008-0.012,0.009-0.014,0.012-0.018
			c0.002-0.002,0.001,0,0.005-0.006c0.052-0.064,0.105-0.127,0.161-0.187c0.107-0.115,0.223-0.221,0.344-0.322
			c0.008-0.006,0.007-0.006,0.008-0.007c0.005-0.003,0.005-0.004,0.015-0.01c0.036-0.026,0.073-0.052,0.11-0.077
			c0.062-0.042,0.125-0.081,0.19-0.118c0.065-0.037,0.131-0.072,0.198-0.104c0.006-0.003,0.067-0.029,0.076-0.034
			c0.032-0.012,0.063-0.025,0.095-0.036c0.245-0.089,0.437-0.344,0.349-0.615c-0.078-0.241-0.352-0.445-0.615-0.349
			c-1.487,0.539-2.544,2.009-2.519,3.603c0.004,0.261,0.227,0.512,0.5,0.5c0.171-0.008,0.321-0.1,0.412-0.235
			c-0.009,0.035-0.028,0.065-0.034,0.102c-0.102,0.566,0.137,1.13,0.657,1.395c0.468,0.238,1.024,0.167,1.517,0.061
			c0.739-0.159,1.474-0.342,2.211-0.513c1.657-0.385,3.315-0.77,4.972-1.155C604.371,204.606,604.106,203.642,603.479,203.787z"/>
		<path style="fill:#303351;" d="M552.484,399.669c0,0,13.557,7.336,22.286,8.548c8.729,1.212,14.646,2.435,16.6,6.92
			c2.678,6.149-3.835,8.882-3.835,8.882l-47.611,0.218c0,0-8.065-3.687-3.233-15.943
			C536.691,408.294,547.723,408.006,552.484,399.669z"/>
		<path style="fill:#FFC69F;" d="M519.163,310.833l3.928-5.189l12.058,10.147l-0.651,4.457
			C534.498,320.248,519.892,323.667,519.163,310.833z"/>
		<path style="fill:#FF8DA0;" d="M564.348,270.942c-6.93,15.73-16.07,30.36-25.47,44.78c-1.12,1.74-2.26,3.46-3.39,5.19
			c-5.58-3.1-10.87-6.75-15.76-10.86c5.01-16.36,10.02-32.73,15.03-49.1c-13.5,0.04-27-1.76-40.01-5.34
			c-4.47-1.23-9.01-2.74-12.8-5.33c-1.06-0.71-2.06-1.51-2.98-2.41c-5.38-5.26-7.4-13.36-6.33-20.8c1.04-7.27,4.74-13.95,9.45-19.6
			c0.05,0.07,0.1,0.14,0.15,0.2l0.12-0.1c18.78,3.99,38.04,8.21,55.2,16.45c5.96,2.85,11.67,6.19,17.02,10.17
			c0.14,0.1,0.28,0.21,0.42,0.32c6.23,4.7,12.06,10.81,13.19,18.5C569.088,259.142,566.848,265.272,564.348,270.942z"/>
		<path style="fill:#303351;" d="M549.214,253.839c-0.816-4.674-6.291-4.991-10.035-5.661c-5.278-0.945-10.556-1.89-15.831-2.85
			c-5.316-0.967-10.63-1.948-15.938-2.956c-4.316-0.82-8.954-1.389-12.893-3.461c-1.866-0.982-3.515-2.343-4.651-4.134
			c-1.125-1.774-1.74-3.845-1.935-5.928c-0.446-4.774,1.23-9.36,3.247-13.604c0.522-1.099,1.069-2.185,1.616-3.271
			c0.289-0.573-0.573-1.08-0.863-0.505c-2.152,4.271-4.355,8.665-4.937,13.473c-0.489,4.043,0.282,8.41,2.934,11.607
			c2.651,3.196,6.766,4.605,10.686,5.496c4.995,1.136,10.074,1.967,15.11,2.899c5.272,0.975,10.548,1.93,15.826,2.878
			c2.659,0.478,5.318,0.954,7.978,1.43c2.072,0.371,4.392,0.557,6.287,1.546c4.985,2.604,1.345,9.119-0.294,12.697
			c-2.213,4.83-4.426,9.66-6.63,14.494c-4.425,9.706-8.812,19.428-13.088,29.201c-0.528,1.207-1.055,2.415-1.58,3.624
			c-0.254,0.584,0.608,1.094,0.864,0.505c4.248-9.784,8.615-19.516,13.029-29.227c2.199-4.836,4.409-9.668,6.621-14.498
			c1.075-2.346,2.193-4.678,3.216-7.047C548.862,258.441,549.62,256.159,549.214,253.839z"/>
		<path style="fill:#303351;" d="M534.498,320.248c0,0,0.375,15.41,3.664,23.586s5.17,13.918,2.249,17.844
			c-4.003,5.381-9.612,1.089-9.612,1.089l-23.861-41.202c0,0-0.811-8.831,12.226-10.732
			C519.163,310.833,524.897,320.262,534.498,320.248z"/>
		<path style="fill:#FFAC6E;" d="M532.658,360.036c-5.331-10.593-11.204-20.91-17.601-30.896c-1.821-2.843-3.686-5.659-5.59-8.448
			c-0.361-0.528-1.228-0.029-0.863,0.505c6.686,9.794,12.868,19.93,18.507,30.362c1.606,2.971,3.166,5.965,4.684,8.982
			C532.084,361.116,532.947,360.61,532.658,360.036z"/>
		<path style="fill:#FFAC6E;" d="M538.485,338.486c-0.207-0.014-0.407-0.005-0.603,0.018c0.311-0.389,0.612-0.786,0.899-1.195
			c0.966-1.373,2.294-3.189,2.062-4.968c-0.199-1.525-1.609-2.358-3.04-2.327c0.063-0.215,0.139-0.428,0.19-0.646
			c0.321-1.353,0.334-3.147-0.911-4.054c-1.6-1.166-3.47,0.062-4.467,1.394c-1.447,1.934-2.509,4.209-3.319,6.474
			c-0.217,0.607,0.749,0.868,0.964,0.266c0.759-2.123,1.766-4.24,3.097-6.07c0.593-0.816,1.56-1.766,2.679-1.474
			c0.875,0.228,1.133,1.148,1.14,1.949c0.007,0.774-0.167,1.561-0.435,2.328c-1.464,0.424-2.78,1.522-3.708,2.676
			c-1.193,1.483-1.901,3.26-2.068,5.154c-0.032,0.358,0.457,0.651,0.752,0.432c2.497-1.851,4.632-4.472,5.755-7.426
			c0.502-0.074,1.006-0.023,1.486,0.221c2.084,1.06,0.1,3.873-0.74,5.127c-0.78,1.165-1.674,2.242-2.653,3.24
			c-0.458,0.376-0.882,0.804-1.278,1.221c-0.446,0.471,0.227,1.131,0.707,0.707c0.459-0.405,0.897-0.833,1.323-1.271
			c0.563-0.444,1.192-0.776,1.921-0.785c0.547-0.007,1.17,0.175,1.5,0.643c0.439,0.622,0.205,1.394-0.153,1.989
			c-0.729,1.21-2.049,2.058-3.258,2.73c-1.302,0.723-2.703,1.218-4.162,1.512c-0.63,0.127-0.364,1.091,0.266,0.964
			c1.852-0.372,3.634-1.08,5.223-2.104c1.395-0.9,3.036-2.156,3.294-3.918C541.178,339.739,539.973,338.586,538.485,338.486z
			 M535.282,333.137c-0.841,1.371-1.897,2.601-3.109,3.657c0.314-1.294,0.933-2.514,1.81-3.519c0.553-0.634,1.352-1.366,2.233-1.83
			C535.927,332.041,535.603,332.613,535.282,333.137z"/>
		<path style="fill:#FFAC6E;" d="M586.192,422.245c-12.063-0.212-24.126-0.424-36.19-0.636c-3.411-0.06-6.822-0.12-10.233-0.18
			c-0.644-0.011-0.644,0.989,0,1c12.063,0.212,24.126,0.424,36.19,0.636c3.411,0.06,6.822,0.12,10.233,0.18
			C586.835,423.257,586.835,422.257,586.192,422.245z"/>
		<path style="fill:#FFAC6E;" d="M577.18,406.004c-1.416-1.201-3.226-0.652-4.566,0.357c0.29-1.453,0.103-3.1-1.078-4.109
			c-1.235-1.055-3.033-0.946-4.413-0.252c-0.643,0.324-1.174,0.786-1.623,1.324c-0.214-0.582-0.456-1.154-0.751-1.699
			c-0.767-1.415-2.209-2.977-3.986-2.678c-1.982,0.334-2.639,2.595-2.892,4.296c-0.363,2.436-0.117,4.923,0.706,7.243
			c0.214,0.602,1.18,0.343,0.964-0.266c-0.573-1.617-0.868-3.306-0.837-5.024c0.026-1.42,0.17-3.08,0.945-4.315
			c0.883-1.406,2.368-1.056,3.369,0.011c0.871,0.928,1.417,2.187,1.777,3.433c-0.353,0.596-0.641,1.236-0.886,1.866
			c-0.504,1.293-1.772,4.266,0.423,4.779c1.864,0.435,2.017-2.212,1.991-3.387c-0.024-1.05-0.177-2.098-0.447-3.114
			c0.403-0.596,0.897-1.121,1.524-1.483c1.063-0.614,2.585-0.816,3.556,0.083c1.116,1.034,0.88,2.848,0.382,4.121
			c-0.13,0.332-0.282,0.654-0.441,0.971c-0.839,1.135-1.459,2.435-1.801,3.797c-0.157,0.624,0.787,0.885,0.964,0.266
			c0.358-1.253,1.066-2.355,1.663-3.504c0.199-0.266,0.403-0.529,0.631-0.774c1.015-1.087,2.857-2.393,4.245-1.127
			c1.177,1.074,0.919,2.808,0.094,3.999c-1,1.444-2.697,2.197-4.24,2.908c-0.584,0.269-0.076,1.131,0.505,0.863
			c1.879-0.866,3.89-1.855,4.904-3.766C578.691,409.259,578.602,407.21,577.18,406.004z M565.321,407.474
			c0.021,0.67,0.076,1.486-0.215,2.109c-0.138,0.294-0.352,0.529-0.681,0.345c-0.435-0.242-0.392-0.839-0.301-1.249
			c0.167-0.753,0.47-1.503,0.751-2.221c0.082-0.21,0.172-0.421,0.266-0.632C565.234,406.371,565.303,406.92,565.321,407.474z"/>
		<g>
			<path style="opacity:0.8;fill:#2E333F;" d="M539.75,149.39c0.177,0.896,0.217,1.841,0.128,2.756
				c-0.08,0.914-0.304,1.82-0.642,2.675c-0.318,0.794-0.737,1.68-1.404,2.247c-0.58,0.506-1.476,0.683-2.145,0.232
				c-0.787-0.53-0.641-1.52-0.31-2.288c0.51-1.187,1.959-4.727,2.153-5.311c0.139-0.433,0.239-0.937,0.609-1.24
				c0.336-0.269,0.821-0.301,1.158-0.023C539.589,148.674,539.681,149.045,539.75,149.39z"/>
			<circle style="opacity:0.8;fill:#2E333F;" cx="549.136" cy="151.531" r="2.933"/>
			<path style="fill:#303351;" d="M541.501,148.073c1.678,1.004,3.881,0.582,5.08-0.929c0.071-0.089,0.128-0.177,0.192-0.272
				c0.133-0.198,0.151-0.45,0.045-0.668c-0.112-0.21-0.332-0.361-0.571-0.381c-0.211-0.01-0.415,0.095-0.536,0.278
				c-0.046,0.073-0.093,0.132-0.146,0.199c-0.372,0.469-0.868,0.803-1.427,0.942c-0.657,0.17-1.395,0.045-2.019-0.329
				c-0.146-0.091-0.324-0.112-0.487-0.059c-0.19,0.056-0.344,0.188-0.419,0.359C541.065,147.522,541.187,147.873,541.501,148.073z"
				/>
			<path style="fill:#303351;" d="M536.472,148.077c-0.108-0.231-0.328-0.382-0.559-0.396c-0.218-0.015-0.423,0.089-0.551,0.266
				c-0.035,0.045-0.063,0.095-0.099,0.14c-0.337,0.424-0.825,0.704-1.358,0.778c-0.592,0.088-1.165-0.076-1.626-0.442
				c-0.29-0.23-0.685-0.192-0.921,0.106c-0.114,0.128-0.15,0.281-0.153,0.437c0.008,0.188,0.095,0.354,0.251,0.478
				c0.746,0.604,1.751,0.881,2.668,0.735c0.85-0.138,1.622-0.592,2.148-1.255l0.148-0.186
				C536.558,148.534,536.571,148.289,536.472,148.077z"/>
			<path style="fill:#FFFFFF;" d="M546.252,155.574c-0.227,1.156-0.915,2.244-2.109,2.55c-0.611,0.155-1.258,0.066-1.85-0.117
				c-0.544-0.181-1.175-0.426-1.554-0.861c-0.393-0.462-0.363-1.119,0.024-1.568c0.436-0.504,1.077-0.587,1.71-0.592
				c0.067,0,0.125,0.001,0.185,0.021c0.138-0.375,0.307-0.735,0.559-1.05c0.38-0.496,0.931-0.998,1.577-1.11
				c0.618-0.108,1.188,0.251,1.424,0.822C546.445,154.251,546.367,154.972,546.252,155.574z"/>
			<path style="fill:#303351;" d="M535.191,144.837c-0.21-0.471-0.69-0.666-1.174-0.51c-0.827,0.266-1.627,0.607-2.391,1.02
				c-0.216,0.117-0.388,0.238-0.493,0.471c-0.092,0.205-0.11,0.494-0.017,0.703c0.094,0.21,0.251,0.406,0.471,0.493
				c0.21,0.084,0.494,0.13,0.703,0.017c0.764-0.413,1.564-0.754,2.391-1.02c0.208-0.067,0.406-0.276,0.493-0.471
				C535.266,145.335,535.284,145.046,535.191,144.837z"/>
			<path style="fill:#303351;" d="M545.335,143.045c-1.024-0.047-2.049-0.024-3.069,0.07c-0.251,0.023-0.467,0.073-0.655,0.256
				c-0.156,0.152-0.277,0.404-0.273,0.625c0.005,0.237,0.078,0.487,0.257,0.655c0.16,0.15,0.396,0.294,0.625,0.273
				c1.02-0.094,2.045-0.118,3.069-0.07c0.473,0.022,0.937-0.4,0.928-0.881C546.207,143.474,545.841,143.069,545.335,143.045z"/>
		</g>
	</g>
	<g>
		<path style="fill:#C6705C;" d="M439.964,375.708l-0.02,0.03c-4.1,3.85-8.22,7.68-12.32,11.52c-3.53-1.54-6.55-4.23-8.51-7.55
			c5.15-3.23,10.35-6.37,15.6-9.42c0.52,1.29,1.42,2.41,2.46,3.35C438.034,374.408,438.994,375.068,439.964,375.708z"/>
		<path style="fill:#303351;" d="M432.113,383.219c0,0,0.071,13.872,2.888,21.286c2.817,7.413,4.411,12.613,1.715,16.094
			c-3.695,4.772-8.668,0.813-8.668,0.813l-20.756-37.485c0,0-0.577-7.96,11.186-9.445
			C418.478,374.483,423.474,383.066,432.113,383.219z"/>
		<path style="fill:#2F3A70;" d="M443.814,365.478c-1.03,0.91-2.07,1.8-3.14,2.67c-0.33-0.24-0.66-0.48-0.99-0.73
			c-4.16-3.15-7.72-7.1-10.43-11.58c-0.56-0.92-1.08-1.88-1.46-2.89v-0.01c-0.17-0.43-0.31-0.86-0.4-1.32
			c1.35-1.04,2.66-2.12,3.94-3.24C434.044,354.958,438.364,360.888,443.814,365.478z"/>
		<path style="fill:#48589B;" d="M481.124,329.968c0.57,4.73-0.9,9.67-3.96,13.32c-3.16,3.76-7.78,6.05-10.99,9.76
			c-1.89,2.18-3.22,4.78-5.09,6.97c-0.44,0.51-0.9,1-1.39,1.46c-1.02,2.91-1.55,6.1-3.88,8.02c-2.01,1.66-4.87,1.9-7.02,3.38
			c-0.87,0.6-1.67,1.43-2.71,1.58c-0.68,0.1-1.37-0.11-2.01-0.37c-0.06-0.03-0.13-0.05-0.19-0.08c-2.59-1.13-4.7-3.13-6.69-5.15
			c0.83-0.49,1.66-0.96,2.49-1.44c0.33,0.25,0.66,0.49,0.99,0.73c1.07-0.87,2.11-1.76,3.14-2.67c-5.45-4.59-9.77-10.52-12.48-17.1
			c-0.13-0.3-0.25-0.61-0.36-0.92c-0.44-3.71,2.08-7.15,4.55-10c0.6-0.69,1.25-1.51,1.11-2.42c-0.18-1.22-1.59-1.75-2.61-2.46
			c-1.83-1.26-2.67-3.79-1.96-5.9c0.18-0.53,0.45-1.05,0.45-1.62c0-1.05-0.93-1.84-1.76-2.48c-9.86-7.6-18.71-16.48-26.27-26.37
			c-3.94-5.14-7.55-10.61-9.93-16.63c-2.37-6.03-3.46-12.68-2.26-19.05l0.04-0.22c18.63-21.09,46.23-18.55,46.23-18.55
			c14.91,14.75,28.14,31.21,39.34,48.94c2.23,3.52,4.41,7.18,5.25,11.26c1.47,7.1-1.3,14.29-4.19,20.99
			C480.024,325.178,480.824,327.518,481.124,329.968z"/>
		<path style="fill:#2F3A70;" d="M443.884,374.008l-0.16,0.36c-0.88,0.71-1.76,1.42-2.64,2.12l-0.1-0.13
			c-0.34-0.22-0.68-0.43-1.02-0.65c-0.97-0.64-1.93-1.3-2.79-2.07c-1.04-0.94-1.94-2.06-2.46-3.35c0.82-0.48,1.65-0.96,2.48-1.43
			C439.184,370.878,441.294,372.878,443.884,374.008z"/>
		<path style="fill:#C6705C;" d="M439.684,367.418c-0.83,0.48-1.66,0.95-2.49,1.44c-0.83,0.47-1.66,0.95-2.48,1.43
			c-5.25,3.05-10.45,6.19-15.6,9.42c-0.49,0.29-5.67,4.039-6.15,4.339c-4.34-1.48-5.461-6.225-7.161-10.495
			c6.55-6.2,15.341-14.524,21.991-20.604c0.38,1.01,0.9,1.97,1.46,2.89C431.964,360.318,435.524,364.268,439.684,367.418z"/>
		<path style="fill:#303351;" d="M445.124,237.128l-42.368,9.183C402.756,246.311,420.581,225.234,445.124,237.128z"/>
		<path style="fill:#C6705C;" d="M398.804,189.598c-10.83,0.61-19.31-8-19.82-8.53c-0.01-0.01-0.02-0.02-0.02-0.02
			c-0.46-2.03-0.9-4.05-1.31-6.08c-0.28-1.31-0.55-2.62-0.8-3.93c-2.74-0.62-5.08-2.8-5.84-5.51c-0.28-1.01-0.35-2.13,0.11-3.07
			c0.46-0.93,1.43-1.58,2.46-1.65c1.29-0.08,2.44,0.66,3.45,1.52l-0.14-0.48c0.55,0.26,1.14,0.45,1.75,0.57
			c0.75-0.8,0.82-2.02,0.66-3.11c-0.17-1.08-0.52-2.16-0.44-3.25c0.11-1.79,1.48-3.42,3.22-3.86c2.27-0.56,5,0.71,6.85-0.71
			c1.41-1.08,1.92-3.47,3.69-3.59c0.83-0.06,1.59,0.47,2.41,0.63c0.39,0.08,0.84-0.02,1.17-0.22l3.95,13.66l1.37,4.75
			c0.33,1.15,0.47,2.32,0.42,3.45v0.01c-0.08,2.59-1.07,5.04-2.73,6.96C401.114,179.388,408.654,189.048,398.804,189.598z"/>
		<path style="fill:#303351;" d="M398.434,183.088c-1.29,0.85-2.91,1.16-4.46,1.05c-1.7-0.13-3.34-0.72-4.89-1.44
			c-2.5-1.16-4.94-2.8-6.31-5.15c2.79,2.87,7.03,4.17,11.13,2.99c0.8-0.23,1.55-0.55,2.25-0.94
			C396.944,180.738,397.704,181.898,398.434,183.088z"/>
		<path style="fill:#303351;" d="M405.204,154.048c0.82,3.3-1.46,7.04-4.76,7.84l-0.29,0.08l-3.95-13.66
			c-0.33,0.2-0.78,0.3-1.17,0.22c-0.82-0.16-1.58-0.69-2.41-0.63c-1.77,0.12-2.28,2.51-3.69,3.59c-1.85,1.42-4.58,0.15-6.85,0.71
			c-1.74,0.44-3.11,2.07-3.22,3.86c-0.08,1.09,0.27,2.17,0.44,3.25c0.16,1.09,0.09,2.31-0.66,3.11c-0.61-0.12-1.06,0.17-1.61-0.09
			l0,0c-1.01-0.86-2.16-1.6-3.45-1.52c-1.03,0.07-2,0.72-2.46,1.65c-0.46,0.94-0.39,2.06-0.11,3.07c0.76,2.71,3.1,4.89,5.84,5.51
			c0.25,1.31,0.52,2.62,0.8,3.93l-0.38,0.08c-0.7-1.68-2.98-1.87-4.78-1.6c-1.79,0.27-3.88,0.65-5.21-0.59
			c-1.28-1.21-1.1-3.28-1.84-4.88c-0.89-1.93-2.98-2.94-4.67-4.23c-2.81-2.14-4.78-5.96-3.45-9.23c0.43-1.06,1.17-1.97,1.57-3.03
			c0.74-1.99,0.23-4.19-0.12-6.28c-0.35-2.09-0.45-4.46,0.9-6.1c1.59-1.93,4.62-2.11,6.32-3.95c1.61-1.73,1.68-4.58,3.48-6.11
			c2.26-1.93,5.78-0.73,8.59-1.67c2.58-0.85,4.28-3.4,6.81-4.37c1.76-0.67,3.82-0.47,5.42,0.52c1.71,1.07,2.85,2.94,4.65,3.84
			c2.05,1.02,4.79,0.71,6.33,2.4c2.06,2.24,0.33,6.05,1.67,8.78c0.79,1.62,2.59,2.67,3.11,4.41c0.81,2.71-1.92,5.37-1.65,8.19
			C404.494,152.148,404.964,153.068,405.204,154.048z"/>
		<path style="fill:#C6705C;" d="M437.914,241.988c-8.67,0.27-17.29,2.46-25.04,6.37l-8.26-2.77c5.62-3.51,11.55-6.52,17.9-8.33
			c4.7-1.34,9.66-1.98,14.53-1.65C437.334,237.738,437.624,239.858,437.914,241.988z"/>
		<path style="fill:#FF8DA0;" d="M445.714,237.048l-0.59,0.08c-2.62-0.85-5.34-1.34-8.08-1.52c-4.87-0.33-9.83,0.31-14.53,1.65
			c-6.35,1.81-12.28,4.82-17.9,8.33l-15.42-5.19l-1.28-10.47l-0.06-0.18c-6.54,2.09-13.46,3.03-20.32,2.75
			c-1.21-0.04-2.41-0.13-3.61-0.26c-2.3-8.92-4.43-17.98-4.09-27.17c0.1-2.54,0.39-5.1,1.23-7.5c1.37-3.86,4.11-7.11,7.28-9.7
			c3.17-2.59,6.78-4.58,10.37-6.54l0.27-0.26c0.51,0.53,8.99,9.14,19.82,8.53c9.85-0.55,2.31-10.21,0.41-12.46
			c1.66-1.92,2.65-4.37,2.73-6.96v-0.01c5.08-1.77,10.46-3.22,15.57-1.77c3.37,0.95,6.27,3.1,8.91,5.39
			c4.97,4.33,9.3,9.34,13.54,14.38c-0.72,1.03-1.45,2.07-2.21,3.09c-2.18,2.93-4.55,5.7-7.49,7.78c1.81,4.85,3.47,9.8,5.63,14.47
			c0.99,2.15,2.11,4.26,3.22,6.38c0,0,0,0,0.01,0.01C442.014,225.418,444.914,230.928,445.714,237.048z"/>
		<path style="fill:#C6705C;" d="M482.284,181.078c-0.22,1.53-1.05,2.94-2.18,3.98c-0.78,0.71-1.69,1.26-2.67,1.65
			c-1.8,5.12-6.39,5.57-6.39,5.57s-16.82,30.31-22.34,31.76c-5.37,1.42-9.36-3.85-9.58-4.14c-0.01-0.01-0.01-0.01-0.01-0.01
			c-1.11-2.12-2.23-4.23-3.22-6.38c-2.16-4.67-3.82-9.62-5.63-14.47c2.94-2.08,5.31-4.85,7.49-7.78l8.64,9.15l15.43-13.4l-0.02-0.02
			c1.45-4.84,2.89-9.68,4.34-14.53c0.14-0.46,0.28-0.93,0.6-1.29c0.43-0.48,1.11-0.67,1.76-0.65c0.23,0.01,0.46,0.05,0.69,0.1
			c0.74-1.2,1.67-2.37,3.03-2.58c1.03-0.16,2.05,0.29,2.93,0.83c2.49,1.55,4.37,3.93,5.74,6.52
			C481.824,177.148,482.554,179.118,482.284,181.078z"/>
		<path style="fill:#303351;" d="M477.812,321.351c-5.058-7.899-10.221-15.73-15.491-23.489
			c-5.27-7.759-10.645-15.446-16.124-23.059c-3.052-4.24-6.137-8.455-9.253-12.649l7.242-13.122
			c0.311-0.564-0.552-1.069-0.863-0.505c-2.467,4.47-4.934,8.94-7.401,13.409c-0.08,0.144-0.105,0.363,0,0.505
			c5.595,7.528,11.089,15.131,16.478,22.808c5.389,7.677,10.673,15.427,15.851,23.247c2.934,4.43,5.832,8.884,8.698,13.359
			C477.294,322.396,478.16,321.895,477.812,321.351z"/>
		<path style="fill:#303351;" d="M445.873,254.757c-2.002,2.308-4.005,4.616-6.007,6.924c-0.42,0.484,0.284,1.194,0.707,0.707
			c2.002-2.308,4.005-4.616,6.007-6.924C447,254.98,446.295,254.27,445.873,254.757z"/>
		<path style="fill:#303351;" d="M446.028,332.497c-0.316-1.608-1.711-2.324-2.817-3.346c-1.332-1.23-1.166-2.789-0.683-4.386
			c0.451-1.491,1.106-2.995,1.049-4.583c-0.123-3.42-3.416-5.476-5.853-7.328c-2.941-2.235-5.786-4.596-8.532-7.066
			c-5.504-4.951-10.604-10.35-15.238-16.124c-4.628-5.767-8.783-11.917-12.409-18.361c-0.445-0.791-0.882-1.587-1.312-2.387
			c-0.305-0.567-1.168-0.063-0.863,0.505c3.472,6.46,7.461,12.639,11.924,18.459c4.425,5.771,9.296,11.196,14.574,16.199
			c2.661,2.522,5.423,4.938,8.279,7.237c1.387,1.117,2.8,2.201,4.225,3.269c1.335,1,2.746,2.081,3.589,3.553
			c1.788,3.12-1.157,6.021-0.791,9.206c0.189,1.639,1.353,2.534,2.549,3.504c0.589,0.477,1.129,1.002,1.311,1.765
			c0.074,0.311,0.103,0.675-0.048,0.969c-0.204,0.397-0.626,0.485-1.021,0.606c-0.682,0.209-1.254,0.532-1.544,1.211
			c-0.275,0.644-0.234,1.396-0.029,2.055c0.5,1.601,2.192,2.843,1.437,4.664c-0.734,1.771-2.654,2.509-4.286,3.208
			c-1.563,0.669-3.148,1.491-4.006,3.038c-0.367,0.661-0.546,1.398-0.476,2.152c0.058,0.636,1.059,0.642,1,0
			c-0.172-1.882,1.471-3.148,2.992-3.881c1.641-0.791,3.48-1.308,4.751-2.692c1.091-1.188,1.574-2.751,0.899-4.274
			c-0.359-0.811-0.982-1.495-1.294-2.325c-0.238-0.633-0.353-1.584,0.314-1.995c0.688-0.424,1.507-0.348,2.016-1.079
			C446.093,333.751,446.146,333.099,446.028,332.497z"/>
		<path style="fill:#303351;" d="M433.724,206.163c-3.589-8.654-8.351-16.785-14.161-24.136c-1.662-2.103-3.41-4.137-5.233-6.102
			c-0.439-0.473-1.145,0.236-0.707,0.707c6.282,6.769,11.617,14.394,15.819,22.617c1.2,2.348,2.307,4.744,3.317,7.18
			C433.002,207.014,433.97,206.757,433.724,206.163z"/>
		<path style="fill:#303351;" d="M479.096,185.041c-1.327,0.677-3.038,0.068-3.593-1.328c-0.022-0.054-0.052-0.103-0.086-0.149
			c1.122-0.253,2.18-0.786,3.037-1.562c1.429-1.294,2.226-3.221,2.185-5.142c-0.014-0.643-1.014-0.645-1,0
			c0.036,1.674-0.647,3.308-1.892,4.435c-1.183,1.071-2.796,1.546-4.371,1.417c-0.055-0.363-0.143-0.721-0.256-1.075
			c3.459-0.945,5.837-4.281,5.535-7.883c-0.053-0.637-1.054-0.642-1,0c0.269,3.213-1.794,6.129-4.903,6.94
			c-0.339-0.744-0.776-1.463-1.258-2.146c0.608,0.233,1.238,0.411,1.889,0.504c0.983,0.141,2.46,0.199,2.738-1.045
			c0.128-0.572-0.158-1.129-0.494-1.573c-0.328-0.432-0.699-0.834-1.072-1.233c0.54-0.639,0.944-1.382,1.16-2.193
			c0.067-0.252-0.084-0.555-0.349-0.615c-0.262-0.06-0.543,0.079-0.615,0.349c-0.05,0.187-0.109,0.37-0.179,0.55
			c-0.008,0.02-0.016,0.041-0.024,0.061c-0.016,0.037-0.032,0.073-0.049,0.11c-0.042,0.09-0.086,0.179-0.133,0.267
			c-0.089,0.165-0.186,0.325-0.292,0.479c-0.027,0.039-0.054,0.077-0.081,0.114c-0.014,0.019-0.028,0.038-0.042,0.056
			c-0.024,0.029-0.049,0.058-0.073,0.087c-1.129-1.249-2.259-2.498-3.388-3.747c-0.433-0.478-1.138,0.231-0.707,0.707
			c0.835,0.924,1.671,1.848,2.506,2.771c0.844,0.933,1.804,1.834,2.551,2.846c0.154,0.208,0.422,0.555,0.282,0.836
			c-0.108,0.216-0.442,0.241-0.647,0.255c-0.515,0.035-1.056-0.067-1.556-0.181c-1.111-0.255-2.124-0.745-3.039-1.42
			c-0.486-0.358-0.948,0.382-0.606,0.785c1.85,2.185,4.209,5.218,2.729,8.222c-0.283,0.575,0.579,1.083,0.864,0.505
			c0.387-0.785,0.56-1.565,0.576-2.331c0.371,0.028,0.742,0.016,1.111-0.019c-0.034,0.092-0.049,0.189-0.012,0.282
			c0.366,0.919,1.049,1.671,1.967,2.06c1,0.424,2.132,0.357,3.095-0.134c0.24-0.123,0.31-0.461,0.179-0.684
			C479.637,184.976,479.337,184.918,479.096,185.041z"/>
		<path style="fill:#303351;" d="M417.111,200.249c-5.875,5.239-10.66,11.653-14.006,18.779c-0.272,0.579,0.59,1.087,0.863,0.505
			c3.313-7.057,8.031-13.387,13.849-18.576C418.3,200.527,417.59,199.822,417.111,200.249z"/>
		<path style="fill:#303351;" d="M422.539,204.757c-4.95,3.059-9.54,6.68-13.665,10.785c-0.457,0.455,0.25,1.162,0.707,0.707
			c4.067-4.047,8.581-7.612,13.462-10.628C423.59,205.283,423.089,204.417,422.539,204.757z"/>
		<path style="fill:#303351;" d="M379.037,127.944c-2.077-0.997-4.246-2.034-6.593-2.098c-1.922-0.053-3.949,0.578-5.193,2.109
			c-1.181,1.453-1.54,3.313-2.351,4.961c-0.415,0.844-0.963,1.604-1.786,2.088c-0.892,0.525-1.919,0.743-2.88,1.103
			c-1.869,0.702-3.13,2.013-3.547,3.994c-0.462,2.192,0.11,4.334,0.414,6.502c0.177,1.265,0.214,2.54-0.138,3.779
			c-0.293,1.029-0.773,1.988-1.214,2.958c-0.802,1.766-1.526,3.707-0.857,5.641c0.759,2.192,2.746,3.607,4.517,4.951
			c2.415,1.833,4.829,3.667,7.244,5.5c0.512,0.389,1.011-0.479,0.505-0.863c-1.985-1.507-3.969-3.014-5.954-4.52
			c-1.633-1.24-3.561-2.436-4.737-4.159c-1.203-1.763-0.894-3.651-0.093-5.508c0.781-1.811,1.749-3.539,1.854-5.553
			c0.118-2.264-0.691-4.444-0.726-6.696c-0.028-1.829,0.46-3.758,2.176-4.692c1.625-0.885,3.588-0.972,4.943-2.354
			c1.183-1.206,1.643-2.888,2.254-4.416c0.356-0.891,0.794-1.786,1.494-2.46c0.811-0.781,1.922-1.196,3.028-1.325
			c2.527-0.295,4.923,0.858,7.137,1.921C379.11,129.085,379.618,128.223,379.037,127.944z"/>
		<path style="fill:#303351;" d="M408.072,140.597c-0.699-1.334-2.228-1.922-2.958-3.25c-1.502-2.736-0.577-6.21-2.535-8.784
			c-1.025-1.347-2.477-1.839-4.135-1.74c-2.058,0.122-4.12,0.428-6.17,0.649c-0.633,0.068-0.64,1.069,0,1
			c1.676-0.18,3.352-0.361,5.028-0.54c1.476-0.158,2.993-0.314,4.132,0.827c2.131,2.137,1.411,5.625,2.432,8.252
			c0.502,1.293,1.339,2.101,2.369,2.982c0.498,0.426,0.941,0.882,1.139,1.523c0.226,0.731,0.13,1.531-0.062,2.258
			c-0.365,1.381-1.137,2.622-1.448,4.02c-0.341,1.535,0.082,3.052,0.009,4.596c-0.14,2.955-1.835,5.738-4.355,7.267
			c-0.549,0.333-0.047,1.198,0.505,0.863c2.354-1.428,4.064-3.823,4.64-6.519c0.334-1.564,0.087-3.034,0.05-4.607
			c-0.041-1.741,0.845-3.184,1.39-4.78C408.541,143.329,408.726,141.844,408.072,140.597z"/>
		<path style="fill:#303351;" d="M401.356,169.526c0.161,3.377-1.38,6.692-3.996,8.823c-2.609,2.124-6.148,2.688-9.351,1.77
			c-1.811-0.519-3.449-1.496-4.746-2.864c-0.444-0.468-1.15,0.24-0.707,0.707c2.507,2.644,6.275,3.943,9.884,3.502
			c3.649-0.446,6.804-2.734,8.534-5.959c0.983-1.832,1.482-3.9,1.383-5.979C402.326,168.886,401.326,168.882,401.356,169.526z"/>
		<path style="fill:#303351;" d="M416.473,384.83c0,0-3.787,13.346-3.141,21.25c0.646,7.904,0.732,13.342-2.825,15.937
			c-4.876,3.557-8.553-1.628-8.553-1.628l-9.521-41.777c0,0,1.658-7.806,13.37-5.964
			C405.803,372.648,408.217,382.281,416.473,384.83z"/>
		<path style="fill:#FFFFFF;" d="M425.742,390.18c-0.533-0.562-1.377-0.741-2.122-0.767c-1.969-0.068-3.976,0.41-5.77,1.198
			c-1.639,0.72-3.12,1.768-4.362,3.052c-0.101-1.811-0.428-3.608-1.002-5.33c-0.364-1.093-0.819-2.159-1.36-3.176
			c-0.443-0.832-0.992-1.708-1.835-2.187c-0.752-0.427-1.663-0.4-2.347,0.145c-0.776,0.619-1.041,1.621-0.982,2.579
			c0.12,1.951,0.99,3.946,2.083,5.542c1.142,1.668,2.663,3.039,4.429,4.015c0.021,0.051,0.047,0.097,0.08,0.14
			c0.068,0.196,0.256,0.358,0.468,0.345c2.333-0.14,4.65-0.504,6.906-1.115c1.143-0.309,2.269-0.68,3.372-1.11
			c0.843-0.328,1.89-0.632,2.485-1.359C426.267,391.567,426.269,390.737,425.742,390.18z M407.325,387.444
			c-0.254-0.848-0.538-1.854-0.284-2.731c0.255-0.881,1.096-1.33,1.893-0.789c0.727,0.494,1.15,1.37,1.533,2.131
			c0.43,0.854,0.792,1.74,1.089,2.649c0.574,1.758,0.876,3.579,0.943,5.42C410.042,392.607,408.159,390.226,407.325,387.444z
			 M424.772,391.742c-0.703,0.526-1.67,0.793-2.487,1.089c-0.898,0.325-1.81,0.611-2.732,0.857
			c-1.849,0.493-3.734,0.809-5.638,0.974c2.013-2.195,4.731-3.669,7.693-4.119c0.771-0.117,1.636-0.216,2.412-0.095
			C424.714,390.556,425.646,391.088,424.772,391.742z"/>
		<path style="fill:#FFFFFF;" d="M415.183,405.216c-0.273-1.472-1.672-2.161-3.122-2.524l1.419-0.407
			c0.764-0.219,1.849-0.4,1.887-1.397c0.038-0.975-0.943-1.389-1.671-1.742l-3.368-1.633c-0.577-0.28-1.084,0.582-0.505,0.863
			c0.749,0.363,1.497,0.726,2.246,1.089c0.374,0.182,0.749,0.363,1.123,0.544c0.272,0.132,0.876,0.307,1.034,0.588
			c0.143,0.081,0.138,0.176-0.015,0.286c-0.041,0.151-0.138,0.23-0.291,0.235c-0.169,0.091-0.405,0.116-0.588,0.169
			c-0.392,0.112-0.784,0.225-1.176,0.337c-0.823,0.236-1.646,0.472-2.469,0.708c-0.577,0.166-0.401,0.919,0.133,0.982
			c1.378,0.164,3.502,0.357,4.257,1.738c0.393,0.719-0.171,1.464-0.833,1.756c-0.015,0.007-0.032,0.008-0.047,0.014
			c-0.833-0.201-1.716-0.027-2.547,0.158c-0.583,0.13-0.398,0.935,0.133,0.982c0.797,0.07,1.653,0.124,2.433-0.093
			c0.534,0.147,0.911,0.483,0.808,1.173c-0.2,1.348-1.951,1.507-3.007,1.59c-0.637,0.05-0.643,1.05,0,1
			c1.659-0.13,4.061-0.657,4.017-2.803c-0.012-0.604-0.331-1.114-0.779-1.48C414.894,406.843,415.337,406.045,415.183,405.216z"/>
		<path style="fill:#FFFFFF;" d="M434.568,401.868c-0.608-0.241-1.241-0.248-1.869-0.161c0.498-0.479,1.171-0.823,1.679-1.254
			c0.729-0.618,1.36-1.546,1.125-2.546c-0.192-0.82-0.937-1.397-1.728-1.591c-0.354-0.087-0.705-0.093-1.052-0.053
			c0.459-0.439,0.918-0.878,1.376-1.318c0.702-0.674,1.418-1.484,1.001-2.515c-0.316-0.78-1.147-1.296-1.969-1.361
			c-1.172-0.093-2.199,0.643-3.079,1.32c-0.503,0.387-0.005,1.256,0.505,0.863c0.645-0.496,1.357-1.076,2.192-1.176
			c0.606-0.072,1.6,0.34,1.472,1.103c-0.067,0.398-0.467,0.71-0.742,0.974c-0.317,0.305-0.635,0.608-0.952,0.912
			c-0.692,0.663-1.385,1.327-2.077,1.99c-0.436,0.418,0.116,1.008,0.606,0.785c0.787-0.358,1.737-0.811,2.615-0.516
			c0.927,0.311,1.09,1.187,0.5,1.925c-0.933,1.168-2.502,1.522-3.016,3.053c-0.126,0.374,0.264,0.703,0.615,0.615
			c1.078-0.27,3.468-0.632,3.263,1.218c-0.165,1.486-1.828,2.03-3.032,2.422c-0.609,0.198-0.349,1.164,0.266,0.964
			c1.73-0.563,3.915-1.543,3.768-3.729C435.974,402.9,435.387,402.192,434.568,401.868z"/>
		<path style="fill:#FFFFFF;" d="M442.785,382.982c-0.423-0.574-1.197-0.734-1.871-0.726c-1.74,0.021-3.633,0.854-5.143,1.658
			c-1.938,1.032-3.656,2.461-5.027,4.174c-0.001,0.001-0.001,0.001-0.001,0.002c-0.477-1.213-1.094-2.368-1.862-3.424
			c-0.888-1.221-2.099-2.807-3.582-3.313c-1.378-0.47-2.839,0.468-2.623,1.989c0.22,1.55,1.652,2.83,2.781,3.788
			c1.482,1.258,3.165,2.222,4.99,2.888c0.272,0.099,0.468-0.045,0.554-0.249c2.135-0.416,4.228-1.026,6.244-1.847
			c1.011-0.412,2.004-0.867,2.971-1.373c0.813-0.425,1.772-0.849,2.381-1.56C443.083,384.419,443.255,383.621,442.785,382.982z
			 M424.45,384.72c-0.417-0.495-1.203-1.603-0.616-2.234c1.178-1.265,3.396,1.648,4.001,2.44c0.88,1.153,1.565,2.437,2.068,3.793
			c-1.319-0.568-2.563-1.31-3.665-2.232C425.597,385.951,424.989,385.361,424.45,384.72z M440.499,385.258
			c-1.027,0.574-2.085,1.093-3.168,1.552c-1.847,0.782-3.767,1.373-5.724,1.807c1.254-1.52,2.764-2.797,4.495-3.747
			c0.935-0.513,1.919-0.925,2.941-1.229c0.766-0.228,1.835-0.617,2.624-0.277C442.916,383.901,440.977,384.991,440.499,385.258z"/>
		<path style="fill:#FFFFFF;" d="M409.137,420.541c-1.261-2.008-3.164-3.498-5.403-4.255l-6.262-30.041
			c-0.6-2.878-1.2-5.757-1.8-8.635c-0.131-0.63-1.095-0.363-0.964,0.266c2.104,10.095,4.208,20.19,6.313,30.285
			c0.6,2.878,1.2,5.757,1.8,8.635c0.036,0.171,0.189,0.301,0.349,0.349c2.119,0.644,3.926,2.025,5.104,3.901
			C408.615,421.589,409.481,421.088,409.137,420.541z"/>
		<path style="fill:#FFFFFF;" d="M434.702,420.395c-0.458-1.536-1.883-2.329-3.308-2.823c-0.887-0.307-1.826-0.534-2.622-1.053
			c-0.778-0.508-1.315-1.281-1.776-2.071c-2.151-3.685-4.063-7.53-6.084-11.287c-1.158-2.154-2.317-4.308-3.475-6.462
			c-0.305-0.567-1.169-0.063-0.863,0.505c2.022,3.76,4.044,7.521,6.066,11.281c1.001,1.862,2,3.725,3.004,5.586
			c0.801,1.485,1.684,2.924,3.269,3.663c1.595,0.743,4.233,0.943,4.825,2.927C433.921,421.276,434.886,421.014,434.702,420.395z"/>
		<g>
			<path style="opacity:0.8;fill:#2E333F;" d="M392.637,166.059c1.286,1.676,3.595,2.766,5.612,1.698
				c0.803-0.423,1.676-1.31,1.568-2.296c-0.129-1.139-1.47-1.1-2.293-1.396c-0.519-0.188-0.998-0.464-1.418-0.825
				c-0.141-0.122-0.275-0.26-0.403-0.397c-0.73-0.896-1.553-1.881-2.819-1.855c-1.023,0.022-1.658,0.865-1.647,1.848
				c0.007,0.565,0.223,1.12,0.453,1.628C391.948,165.026,392.256,165.568,392.637,166.059z"/>
			<circle style="opacity:0.8;fill:#2E333F;" cx="384.757" cy="168.237" r="2.52"/>
			<path style="fill:#303351;" d="M393.428,159.393c0.819-1.466,2.641-2.096,4.182-1.484c0.091,0.036,0.171,0.077,0.26,0.121
				c0.184,0.09,0.305,0.271,0.32,0.478c0.007,0.205-0.093,0.411-0.262,0.528c-0.153,0.097-0.35,0.107-0.518,0.023
				c-0.065-0.035-0.126-0.059-0.194-0.086c-0.478-0.19-0.99-0.226-1.466-0.09c-0.562,0.155-1.058,0.564-1.363,1.11
				c-0.069,0.131-0.193,0.222-0.337,0.253c-0.165,0.04-0.337,0.007-0.466-0.088C393.34,159.991,393.28,159.677,393.428,159.393z"/>
			<path style="fill:#303351;" d="M388.533,161.455c0.019,0.218-0.081,0.425-0.247,0.534c-0.156,0.105-0.353,0.115-0.524,0.038
				c-0.046-0.018-0.088-0.044-0.134-0.062c-0.432-0.172-0.916-0.17-1.345,0.002c-0.479,0.188-0.835,0.555-1.022,1.026
				c-0.117,0.296-0.428,0.436-0.731,0.316c-0.14-0.047-0.232-0.145-0.301-0.26c-0.075-0.144-0.081-0.305-0.018-0.464
				c0.297-0.769,0.927-1.406,1.672-1.69c0.692-0.261,1.462-0.254,2.138,0.014l0.19,0.075
				C388.402,161.078,388.516,161.255,388.533,161.455z"/>
			<path style="fill:#303351;" d="M393.057,155.806c-0.045-0.441,0.229-0.791,0.656-0.883c0.73-0.156,1.472-0.244,2.218-0.264
				c0.211-0.006,0.391,0.011,0.569,0.139c0.156,0.113,0.293,0.321,0.314,0.516c0.02,0.197-0.013,0.41-0.139,0.569
				c-0.121,0.153-0.312,0.308-0.516,0.313c-0.746,0.02-1.488,0.108-2.218,0.264c-0.184,0.039-0.421-0.032-0.569-0.139
				C393.214,156.209,393.077,156.002,393.057,155.806z"/>
			<path style="fill:#303351;" d="M383.447,158.913c0.671-0.571,1.379-1.094,2.122-1.567c0.183-0.116,0.356-0.196,0.58-0.17
				c0.186,0.021,0.401,0.128,0.514,0.281c0.122,0.164,0.203,0.372,0.17,0.58c-0.03,0.186-0.114,0.408-0.281,0.514
				c-0.743,0.473-1.451,0.996-2.122,1.567c-0.31,0.263-0.847,0.221-1.094-0.111C383.081,159.663,383.116,159.195,383.447,158.913z"
				/>
			<path style="fill:#FFFFFF;" d="M390.93,172.483c1.026,0.608,2.317,0.658,3.344,0.009c1.006-0.642,1.649-1.898,1.133-3.057
				c-0.244-0.566-0.823-0.936-1.444-0.873c-0.586,0.055-1.075,0.404-1.515,0.788c-0.021,0.021-0.035,0.049-0.049,0.077
				c-0.467-0.3-0.893-0.671-1.465-0.769c-0.719-0.133-1.48,0.167-1.683,0.927C388.941,170.744,390.016,171.945,390.93,172.483z"/>
		</g>
		<path style="fill:#C6705C;" d="M445.41,248.45c-0.12,0.74-0.91,1.15-1.6,1.42c-1.06,0.4-2.14,0.75-3.24,1.03
			c0.6,1.14,0.53,2.63-0.22,3.71c-0.36,0.52-0.87,0.94-1.44,1.21c0.59,0.77,0.54,1.95-0.06,2.75c-0.44,0.6-1.12,0.98-1.85,1.12
			c0.26,0.85,0.37,1.76,0.2,2.65c-0.17,0.95-0.68,1.86-1.48,2.4c-1.03,0.69-2.34,0.68-3.56,0.62c-0.35-0.02-7.62-0.36-10.25-0.88
			c-2.64-0.52-4.8-1.02-4.8-1.02s-13.3-1.22-24.78-3.15c-7.83-1.31-14.81-2.96-16.15-4.76c-3.3-4.45-8.65-23.05-8.65-23.05
			c6.86,0.28,13.78-0.66,20.32-2.75l0.06,0.18l1.28,10.47l15.42,5.19l8.26,2.77l4.64,1.57c2.2-1.93,4.56-3.74,7.36-4.48
			c0.07-0.02,0.14-0.04,0.21-0.05c2.29-0.56,4.67-0.36,7.01-0.17c0.16,0.01,0.32,0.03,0.48,0.04c3.58,0.31,7.16,0.63,10.67,1.32
			c0.52,0.1,1.06,0.22,1.49,0.52C445.17,247.4,445.49,247.92,445.41,248.45z"/>
		<path style="fill:#303351;" d="M417.61,249.412l-28.279-9.222c-0.613-0.2-0.876,0.765-0.266,0.964l28.279,9.222
			C417.957,250.577,418.22,249.611,417.61,249.412z"/>
		<path style="fill:#303351;" d="M409.3,262.261c-6.172-1.021-12.344-2.042-18.516-3.064c-0.63-0.104-0.9,0.859-0.266,0.964
			c6.172,1.021,12.344,2.043,18.517,3.064C409.664,263.329,409.935,262.366,409.3,262.261z"/>
		<path style="fill:#303351;" d="M390.075,208.638c-0.079-0.63-1.08-0.638-1,0c0.792,6.331,1.583,12.661,2.375,18.992
			c-6.542,2.755-13.585,4.236-20.681,4.372c-0.643,0.012-0.645,1.012,0,1c7.293-0.14,14.492-1.685,21.211-4.519
			c0.278,0.038,0.563-0.111,0.519-0.463C391.691,221.56,390.883,215.099,390.075,208.638z"/>
		<path style="fill:#303351;" d="M440.269,250.226c-1.204,0.111-2.409,0.222-3.613,0.333c-0.269,0.025-0.5,0.212-0.5,0.5
			c0,0.251,0.23,0.525,0.5,0.5c1.204-0.111,2.409-0.222,3.613-0.333c0.269-0.025,0.5-0.212,0.5-0.5
			C440.769,250.475,440.54,250.201,440.269,250.226z"/>
		<path style="fill:#303351;" d="M439.11,255.038c-0.741,0.097-1.481,0.195-2.222,0.292c-0.138,0.018-0.251,0.044-0.354,0.146
			c-0.087,0.087-0.152,0.229-0.146,0.354c0.011,0.242,0.222,0.536,0.5,0.5c0.741-0.097,1.481-0.195,2.222-0.292
			c0.138-0.018,0.251-0.044,0.354-0.146c0.087-0.087,0.152-0.229,0.146-0.354C439.599,255.296,439.387,255.001,439.11,255.038z"/>
		<path style="fill:#303351;" d="M437.213,259.24c-0.864,0.055-1.729,0.109-2.593,0.164c-0.261,0.017-0.513,0.218-0.5,0.5
			c0.011,0.257,0.22,0.518,0.5,0.5c0.864-0.055,1.729-0.109,2.593-0.164c0.26-0.016,0.513-0.218,0.5-0.5
			C437.702,259.484,437.493,259.223,437.213,259.24z"/>
	</g>
	<g>
		<path style="fill:#FFC69F;" d="M266.169,270.498c-9.59-2.57-19.2-5.22-28.35-9.05c-7.2-3.02-14.16-6.82-20.26-11.69
			c-1.25-0.99-2.47-2.03-3.64-3.12c0.09-0.2,0.18-0.39,0.28-0.59c0.01-0.02,0.01-0.04,0.03-0.05c1.38-2.94,2.88-5.83,4.47-8.67
			c3.63-6.42,7.79-12.56,12.42-18.3c6.77,2.96,12.17,8.56,16.73,14.44c5.29,6.84,9.78,14.26,13.74,21.94
			c0.09,0.17,0.18,0.34,0.27,0.51l-0.81,1.29c-0.46,2.59,0.32,5.46,1.59,7.85C263.649,266.968,264.949,268.708,266.169,270.498z"/>
		<path style="fill:#FFFFFF;" d="M177.213,403.622l11.46,25.19h18.77c2.29-9.11-8.17-12.93-8.17-12.93l-0.35-3.23l-2.71-25.02
			c-6.87,5.25-16.11,1.64-16.11,1.64C171.789,392.164,177.213,403.622,177.213,403.622z"/>
		<path style="fill:#303351;" d="M300.538,396.764l-9.662-8.99l14.641-8.71l3.854,4.436
			C309.371,383.499,317.011,396.211,300.538,396.764z"/>
		<path style="fill:#FFFFFF;" d="M309.288,383.391c0,0,13.872,0.173,21.333-2.514s12.689-4.188,16.122-1.432
			c4.707,3.779,0.661,8.681,0.661,8.681L309.56,408.22c0,0-7.969,0.437-9.246-11.351
			C300.313,396.87,308.983,392.025,309.288,383.391z"/>
		<path style="fill:#48589B;" d="M310.979,378.918c-4.93,5.52-10.81,10.2-17.29,13.78l-0.07-0.12c-5.14-1.39-10.99-3.45-12.81-8.46
			c-0.65-1.79-0.68-3.75-1.17-5.59c-1.15-4.39-4.74-7.69-8.48-10.25c-3.74-2.55-7.85-4.67-11.01-7.92
			c-3.01-3.11-5.01-7.18-5.61-11.47c-0.59-4.16,0.1-8.4-0.38-12.57c-0.8-6.91-4.71-13.01-8.6-18.8c0.33,6-0.08,12.04-2.34,17.56
			c-2.74,6.7-7.95,12.05-11.77,18.19c-5.86,9.42-8.9,21.28-18.08,27.51c-1.99,1.35-4.32,2.48-5.44,4.61
			c-0.68,1.28-0.83,2.76-1.23,4.16c-1.38,4.81-6.16,8.42-11.17,8.43l0,0c-6.37-0.66-12.48-3.72-16.51-8.71c0,0,0-0.01-0.01-0.02
			c-1.78-3.42-0.96-8.12,2.09-10.57c-2.45-2.71-3.38-6.7-2.38-10.22c1.21-4.3,4.88-7.36,8.03-10.54c2.35-2.37,4.53-4.97,5.97-7.98
			c1.75-3.66,2.34-7.75,3.01-11.75c0.67-4,1.48-8.09,3.58-11.55c1.65-2.72,4.27-5.02,7.29-5.85c-2.08-1.52-3.25-4.27-3.58-6.91
			c-0.41-3.23,0.11-6.52-0.13-9.77c-0.11-1.55-0.39-3.07-0.78-4.57c-0.83-3.21-1.6-6.45-2.03-9.74c-0.15-1.08-0.26-2.16-0.34-3.25
			c-0.65-9.38,0.81-18.8,4.29-27.53c2.02-5.08,4.72-9.88,7.87-14.34c0.66,0.66,1.33,1.33,2.02,1.96c6.89,6.4,15.22,11.17,23.9,14.81
			c9.75,4.08,20.01,6.82,30.22,9.55l1.51,5.49c0.58,1.16,1.25,2.25,2.17,3.02l-0.41,0.41c5.04,4.8,7.87,11.49,9.61,18.23
			c1.76,6.78,2.53,13.78,4.21,20.57c2.61,10.57,7.43,20.6,14.05,29.25c4.72,6.16,10.64,12.36,10.88,20.12
			c0.03,1.28-0.09,2.58,0.19,3.83c0.21,0.96,0.65,1.85,0.9,2.8C311.519,376.098,311.439,377.568,310.979,378.918z"/>
		<path style="fill:#FFC69F;" d="M321.489,211.918l-15.13,8.2c-3.62,1.96-7.86,1.7-11.15-0.31c-0.96-0.59-1.84-1.32-2.59-2.19
			c-0.1,0.1-3.11,3.17-3.21,3.26c0,0-7.01,5.66-10.21-2.35s4.38-18.24,4.38-18.24c0.02-0.06,0.03-0.13,0.05-0.19l6.11-1.55
			l0.57-0.15l6.57-1.67c0.1-2.73,1.7-5.38,4.12-6.67c0.92-0.5,2.01-0.8,3.02-0.55s1.85,1.06,2.14,2.05c0.35,1.23-0.11,2.5-0.73,3.66
			v0.01c-0.01,0.01-0.01,0.02-0.01,0.02l0.21-0.11c0,0,0.01,0,0.01-0.01c2.09-0.84,4.38-1.33,6.57-0.82c1.28,0.29,2.47,0.92,3.6,1.6
			c1.34,0.81,2.63,1.73,3.68,2.9c1.04,1.16,1.81,2.54,2.37,3.99C322.999,205.748,323.219,209.278,321.489,211.918z"/>
		<path style="fill:#303351;" d="M325.519,206.838c-0.33,0.81-0.73,1.59-1.19,2.33c-0.15,0.24-0.3,0.47-0.46,0.7h-0.01v0.01
			c-0.4,0.55-0.85,1.07-1.37,1.5c0,0-0.01,0-0.01,0.01l-0.99,0.53c1.73-2.64,1.51-6.17,0.37-9.12c-0.56-1.45-1.33-2.83-2.37-3.99
			c-1.05-1.17-2.34-2.09-3.68-2.9c-1.13-0.68-2.32-1.31-3.6-1.6c-2.19-0.51-4.48-0.02-6.57,0.82c0,0.01-0.01,0.01-0.01,0.01
			c-0.07,0.03-0.13,0.05-0.2,0.08c0.62-1.16,1.08-2.43,0.73-3.66c-0.29-0.99-1.13-1.8-2.14-2.05s-2.1,0.05-3.02,0.55
			c-2.42,1.29-4.02,3.94-4.12,6.67l-7.14,1.82c0.02-2.34,0.84-4.63,1.96-6.69c2.15-3.98,5.5-7.37,9.64-9.19
			c3.53-1.56,7.57-1.93,11.33-1.06c0.86,0.2,1.71,0.47,2.53,0.8c2.77,1.1,5.26,2.89,7.16,5.17c1.4,1.68,2.49,3.61,3.26,5.66
			C327.239,197.588,327.279,202.578,325.519,206.838z"/>
		<path style="fill:#303351;" d="M292.619,217.618c-0.94,1.02-1.91,2.01-2.92,2.97c-1.1-1.08-1.75-2.59-1.97-4.13
			c-0.24-1.69-0.02-3.41,0.36-5.08c0.6-2.68,1.68-5.42,3.68-7.25c-2.21,3.34-2.57,7.75-0.54,11.5
			C291.619,216.358,292.089,217.018,292.619,217.618z"/>
		<path style="fill:#303351;" d="M354.609,222.678c-1.8,3.06-4.3,5.65-6.4,8.51c-1.58,2.15-2.98,4.67-2.75,7.33
			c0.2,2.43,1.76,4.69,1.5,7.12c-0.28,2.66-2.66,4.63-5.14,5.63c-4.64,1.88-10.28,1.25-14.23-1.84c-3.94-3.08-5.93-8.57-4.61-13.4
			c0.77-2.81,2.54-5.38,2.58-8.28c0.03-3.27-2.14-6.15-2.73-9.36c-0.48-2.64,0.04-5.98,1.03-8.51v-0.01h0.01
			c0.16-0.23,0.31-0.46,0.46-0.7c0.46-0.74,0.86-1.52,1.19-2.33c1.76-4.26,1.72-9.25,0.1-13.6c-0.77-2.05-1.86-3.98-3.26-5.66
			c-1.9-2.28-4.39-4.07-7.16-5.17c0.62-4.3,3.86-8.16,8.04-9.43c4.46-1.35,9.67,0.33,12.49,4.03c2.59,3.4,3.08,7.93,3.23,12.21
			c0.08,2.47,0.1,5.01,1.06,7.28c3.04,7.15,13.9,8.63,16.34,16C357.479,215.868,356.419,219.618,354.609,222.678z"/>
		<path style="fill:#FFAC6E;" d="M301.13,242c-1.23,4.98-6.51,8.02-8.22,12.85c-1.04,2.94-0.71,6.42-2.56,8.93
			c-1.43,1.95-3.91,2.91-5.35,4.85c-1.37,1.85-1.6,4.29-2.56,6.38c-1.07,2.32-3.08,4.18-5.47,5.07c-1.22,0.46-2.59,0.66-3.83,0.24
			c-0.54-0.18-1-0.46-1.42-0.81c-0.92-0.77-1.59-1.86-2.17-3.02c-0.38-0.74-0.73-1.51-1.09-2.24c-0.66-1.31-1.46-2.54-2.29-3.75
			c-1.22-1.79-2.52-3.53-3.53-5.44c-1.27-2.39-2.05-5.26-1.59-7.85l0.81-1.29c-0.09-0.17-0.18-0.34-0.27-0.51
			c-0.03-0.07-0.07-0.13-0.1-0.19c-5.39-4.9-11.27-9.24-17.54-12.94c-5.79-3.41-11.88-6.23-18.19-8.53
			c-1.45-0.53-2.99-1.12-3.99-2.35c-0.85-1.04-1.3-2.47-0.79-3.75c0.47-1.18,1.57-1.87,2.54-2.59c0.53-0.38,1.06-0.8,1.4-1.37
			c0.4-0.66,0.49-1.44,0.52-2.21c0.04-1.59-0.02-3.09,0.49-4.63c0.5-1.47,1.3-2.8,2.29-4c2.19-2.67,5.24-4.51,8.09-6.4
			c3.22-2.13,6.44-4.27,9.66-6.4c1.92-1.49,3.94-2.84,6.06-4.02c0.93-0.62,1.86-1.24,2.8-1.85c0.25-0.85,0.51-1.7,0.6-2.56
			c0.47-4.5-3.38-8.29-4.2-12.74c-1-5.33,2.47-10.76,1.45-16.08c-0.81-4.23-4.37-7.81-4.15-12.1c0.07-1.54,0.64-2.96,1.51-4.21
			c1.21-1.77,3.03-3.21,4.94-4.23c2.15-1.15,4.55-1.93,6.99-1.88c1.55,0.03,3.11,0.43,4.44,1.2c0.77,0.44,1.46,1.01,2.03,1.7
			c2.65,3.17,2.06,7.8,2.53,11.91c1.06,9.35,8.16,17.21,9.05,26.58c0.18,1.88,0.22,4.03,1.66,5.25c0.53,0.46,1.21,0.72,1.73,1.2
			c0.77,0.69,1.1,1.75,1.26,2.77c0.47,3.05-0.25,6.07-1.04,9.11c-0.02,0.06-0.03,0.13-0.05,0.19c0,0-7.58,10.23-4.38,18.24
			s10.21,2.35,10.21,2.35c0.1-0.09,0.19-0.19,0.29-0.29c1.01-0.96,1.98-1.95,2.92-2.97c0.75,0.87,1.63,1.6,2.59,2.19
			c2.01,4.49,3.72,9.11,5.1,13.84C301.11,236.37,301.81,239.25,301.13,242z"/>
		<path style="fill:#FFC69F;" d="M266.41,141.58c-1.33-0.77-2.89-1.17-4.44-1.2c-2.44-0.05-4.84,0.73-6.99,1.88
			c-1.91,1.02-3.73,2.46-4.94,4.23c-1.93-10.76-4.49-32.44-4.49-32.44c-1.04-0.47-5.01-5.48-5.59-6.46
			c-0.27-0.45-0.48-0.93-0.61-1.44c-0.18-0.66-0.24-1.34-0.17-2.02c-0.91-0.34-1.78-0.81-2.55-1.4c-1.52-1.14-2.72-2.71-3.37-4.5
			c-0.21-0.57-0.36-1.19-0.22-1.78c0.14-0.54,0.5-0.99,0.88-1.4c0.57-0.61,1.19-1.19,1.84-1.72c0.77-0.63,1.59-1.2,2.45-1.7
			l0.01-0.02c-0.38-0.27-0.75-0.56-1.05-0.92c-0.25-0.31-0.43-0.78-0.18-1.1c0.17-0.19,0.44-0.23,0.67-0.27
			c0.85-0.11,1.71-0.16,2.56-0.14c0.52-0.91,1.56-1.55,2.62-1.73c1.44-0.25,2.89,0.15,4.29,0.59c1.44,0.46,2.92,0.99,3.99,2.05
			c0.82,0.83,1.33,1.91,1.69,3.02c0.25,0.78,0.58,1.83,0.93,3.04c1.09,3.89,2.26,11.97,2.24,11.98
			C259.13,119.38,262.6,130.54,266.41,141.58z"/>
		<path style="fill:#303351;" d="M278.902,243.306c-1.479-1.595-3.959-1.525-5.599-0.222c-1.854,1.474-2.367,3.868-2.222,6.129
			c-4.153,0.071-8.009,2.834-9.418,6.751c-0.218,0.607,0.748,0.868,0.964,0.266c1.322-3.677,5.098-6.17,8.987-6.019
			c0.25,0.01,0.528-0.238,0.5-0.5c-0.209-1.953,0.002-4.105,1.477-5.552c1.255-1.232,3.332-1.515,4.603-0.145
			C278.634,244.486,279.339,243.778,278.902,243.306z"/>
		<path style="fill:#303351;" d="M267.001,182.79c-2.966,3.335-5.932,6.671-8.898,10.006c-0.426,0.479,0.278,1.189,0.707,0.707
			c2.966-3.335,5.932-6.671,8.898-10.006C268.134,183.018,267.43,182.308,267.001,182.79z"/>
		<path style="fill:#303351;" d="M261.09,179.35c-1.179,2.985-2.358,5.97-3.537,8.956c-0.236,0.599,0.73,0.858,0.964,0.266
			c1.179-2.985,2.358-5.97,3.537-8.956C262.291,179.017,261.324,178.758,261.09,179.35z"/>
		<path style="fill:#303351;" d="M358.3,211.006c-1.29-3.506-3.953-6.208-6.958-8.324c-2.748-1.935-6.278-3.268-8.347-6.024
			c-2.447-3.259-0.904-7.369-1.094-11.074c-0.355-6.915-5.051-13.315-12.048-14.6c-3.31-0.608-6.838-0.041-9.618,1.916
			c-2.608,1.836-4.548,4.694-5.084,7.859c-0.135,0.794-0.185,1.594-0.146,2.399c0.031,0.641,1.031,0.644,1,0
			c-0.155-3.191,1.242-6.267,3.559-8.434c2.456-2.296,5.79-3.255,9.107-2.909c7.025,0.733,11.925,7.031,12.235,13.865
			c0.16,3.532-1.151,7.284,0.65,10.587c1.507,2.764,4.49,4.287,7.081,5.851c3.083,1.862,6.075,4.157,7.863,7.353
			c1.806,3.229,2.098,7.029,0.25,10.302c-3.346,5.927-10.543,8.26-14.079,14.044c-0.426,0.697-0.773,1.434-1.059,2.199
			c-0.226,0.603,0.74,0.864,0.964,0.266c1.268-3.382,4.118-5.797,6.887-7.959c2.745-2.142,5.62-4.223,7.595-7.148
			C359.115,218.128,359.572,214.463,358.3,211.006z"/>
		<path style="fill:#303351;" d="M340.531,247.563c-2.385,2.598-5.912,3.922-9.417,3.731c-3.543-0.192-6.727-2.078-8.668-5.038
			c-2.006-3.058-2.522-6.761-1.399-10.237c0.63-1.949,1.574-3.788,2.103-5.771c0.571-2.142,0.421-4.281-0.06-6.425
			c-0.586-2.612-1.581-5.21-1.411-7.929c0.128-2.06,1.155-4.303,3.17-5.118c0.589-0.238,0.331-1.206-0.266-0.964
			c-1.772,0.718-2.964,2.244-3.538,4.042c-0.722,2.262-0.309,4.696,0.246,6.945c0.619,2.508,1.497,5.05,1.195,7.67
			c-0.258,2.239-1.32,4.295-2.091,6.384c-0.7,1.898-1.103,3.853-0.917,5.881c0.17,1.85,0.734,3.652,1.644,5.272
			c1.827,3.255,5.005,5.598,8.718,6.156c4.145,0.623,8.543-0.783,11.397-3.891C341.673,247.797,340.967,247.088,340.531,247.563z"/>
		<path style="fill:#303351;" d="M215.6,313.278c-1.095-2.037-2.313-4.005-3.387-6.053c-1.027-1.957-1.907-3.988-2.636-6.075
			c-1.449-4.144-2.322-8.485-2.608-12.866c-0.569-8.724,1.135-17.623,5.128-25.418c0.498-0.972,1.032-1.924,1.597-2.859
			c0.333-0.552-0.531-1.056-0.863-0.505c-4.549,7.535-6.897,16.297-6.967,25.085c-0.071,8.873,2.239,17.478,6.608,25.184
			c2.266,3.996,4.974,8.141,5.166,12.877c0.209,5.182-2.599,9.752-5.535,13.785c-3.135,4.307-6.357,8.552-9.538,12.824
			c-3.127,4.2-6.347,8.351-9.198,12.747c-2.765,4.264-5.048,8.808-6.688,13.622c-0.784,2.299-1.459,4.661-1.907,7.05
			c-0.386,2.061-0.583,4.237-0.048,6.291c0.255,0.978,0.689,1.893,1.303,2.697c0.385,0.505,1.254,0.007,0.863-0.505
			c-2.788-3.653-1.145-9.005,0.023-12.966c1.43-4.851,3.508-9.481,6.134-13.801c2.656-4.37,5.772-8.439,8.823-12.536
			c3.203-4.303,6.407-8.605,9.611-12.908c2.88-3.868,5.897-7.89,6.857-12.725C219.254,321.601,217.77,317.315,215.6,313.278z"/>
		<path style="fill:#303351;" d="M264.959,277.372c-6.759,3.717-13.518,7.433-20.277,11.15c-0.383,0.211-0.269,0.67,0.018,0.85
			c0.124,9.496,0.248,18.992,0.372,28.487c0.008,0.643,1.008,0.645,1,0c-0.125-9.545-0.249-19.089-0.374-28.634
			c-0.001-0.041-0.015-0.072-0.023-0.108c6.596-3.627,13.193-7.255,19.789-10.882C266.027,277.925,265.523,277.061,264.959,277.372z
			"/>
		<path style="fill:#303351;" d="M264.883,284.134c-5.835,1.91-11.669,3.819-17.504,5.729c-0.609,0.199-0.348,1.165,0.266,0.964
			c5.835-1.91,11.669-3.819,17.504-5.729C265.757,284.899,265.497,283.933,264.883,284.134z"/>
		<path style="fill:#303351;" d="M279.067,269.516c-1.771-4.947-4.35-9.549-7.638-13.647c-0.403-0.502-1.106,0.21-0.707,0.707
			c3.173,3.955,5.672,8.432,7.381,13.205C278.318,270.383,279.285,270.124,279.067,269.516z"/>
		<path style="fill:#303351;" d="M279.823,264.298c-1.065-2.78-2.129-5.561-3.194-8.341c-0.228-0.595-1.195-0.337-0.964,0.266
			c1.065,2.78,2.129,5.561,3.194,8.341C279.087,265.158,280.054,264.9,279.823,264.298z"/>
		<path style="fill:#303351;" d="M328.008,375.283c-0.668-0.825-1.782-0.584-2.607-0.159c-2.075,1.072-3.985,2.782-5.586,4.46
			c-0.372,0.39-0.722,0.8-1.07,1.211c0.046-0.117,0.101-0.231,0.146-0.349c0.409-1.068,0.783-2.148,1.122-3.24
			c0.297-0.954,0.756-2.036,0.727-3.051c-0.022-0.796-0.522-1.559-1.391-1.563c-0.924-0.004-1.627,0.793-2.119,1.478
			c-1.175,1.635-2.002,3.533-2.436,5.497c-0.499,2.254-0.486,4.588,0.038,6.836c0.022,0.093,0.065,0.161,0.116,0.216
			c0.065,0.218,0.276,0.415,0.537,0.412c0.154,0.039,0.315-0.005,0.435-0.148c2.264-0.979,4.408-2.217,6.372-3.711
			c1.938-1.473,3.836-3.178,5.303-5.133C328.159,377.291,328.694,376.131,328.008,375.283z M315.803,379.639
			c0.251-1.066,0.615-2.105,1.102-3.086c0.453-0.913,1.03-2.106,1.874-2.718c0.608-0.441,1.017-0.112,0.954,0.581
			c-0.051,0.557-0.263,1.117-0.42,1.651c-0.342,1.17-0.725,2.329-1.146,3.473c-0.723,1.964-1.572,3.877-2.52,5.741
			C315.331,383.41,315.368,381.492,315.803,379.639z M327.212,376.734c-0.205,0.514-0.584,0.932-0.941,1.346
			c-1.41,1.636-2.999,3.127-4.732,4.417c-1.512,1.126-3.128,2.101-4.82,2.927c1.824-3.21,4.31-6.035,7.305-8.206
			c0.721-0.523,1.677-1.376,2.594-1.484C327.299,375.654,327.426,376.197,327.212,376.734z"/>
		<path style="fill:#303351;" d="M332.779,377.415c-1.672,1.306-3.14,2.852-4.378,4.569c0.186-1.134,0.371-2.269,0.557-3.403
			c0.078-0.476-0.449-0.852-0.836-0.486c-2.218,2.097-3.757,4.858-4.363,7.85c-0.127,0.628,0.836,0.897,0.964,0.266
			c0.466-2.301,1.501-4.429,2.995-6.214c-0.225,1.374-0.45,2.748-0.674,4.122c-0.086,0.527,0.613,0.912,0.914,0.385
			c1.41-2.472,3.285-4.63,5.528-6.382C333.993,377.726,333.281,377.023,332.779,377.415z"/>
		<path style="fill:#303351;" d="M346.7,383.727c-10.114,5.646-20.227,11.292-30.341,16.938c-2.838,1.584-5.675,3.168-8.513,4.752
			c-0.562,0.314-0.058,1.178,0.505,0.863c10.114-5.646,20.227-11.292,30.341-16.938c2.838-1.584,5.675-3.168,8.513-4.752
			C347.767,384.277,347.263,383.413,346.7,383.727z"/>
		<path style="fill:#303351;" d="M207.438,397.72c-0.808-1.872-3.132-1.638-4.688-1.029c-3.587,1.404-6.603,4.06-8.503,7.402
			c-0.126-0.046-0.246-0.116-0.35-0.253c-0.262-0.343-0.438-0.758-0.663-1.126c-0.46-0.751-0.998-1.46-1.593-2.11
			c-1.177-1.285-2.622-2.379-4.206-3.111c-0.653-0.302-1.421-0.551-2.132-0.303c-0.679,0.237-1.06,0.883-1.064,1.586
			c-0.009,1.845,1.793,3.49,3.223,4.39c1.924,1.211,4.184,1.693,6.38,2.15c0.108,0.023,0.201,0.004,0.285-0.028
			c0.204,0.132,0.478,0.128,0.64-0.114c0.528-0.025,1.078-0.159,1.533-0.231c1.063-0.169,2.115-0.404,3.148-0.705
			c1.962-0.571,3.869-1.369,5.645-2.382C206.499,401.053,208.228,399.549,207.438,397.72z M185.94,400.446
			c-0.37-0.517-1.332-2.211-0.107-2.357c0.819-0.098,1.799,0.596,2.457,1.009c0.786,0.493,1.513,1.071,2.174,1.723
			c0.683,0.674,1.29,1.421,1.804,2.232c0.199,0.314,0.373,0.685,0.58,1.029c-1.67-0.369-3.334-0.827-4.797-1.729
			C187.242,401.855,186.496,401.223,185.94,400.446z M206.377,399.465c-0.494,0.889-1.511,1.388-2.374,1.848
			c-0.911,0.486-1.851,0.918-2.816,1.286c-1.855,0.708-3.799,1.204-5.769,1.461c1.671-2.686,4.11-4.857,7.01-6.158
			c0.906-0.406,2.005-0.882,3.012-0.623C206.471,397.545,206.894,398.534,206.377,399.465z"/>
		<path style="fill:#303351;" d="M195.11,411.664c1.828-1.99,3.655-3.981,5.483-5.971c0.339-0.369,0.007-0.954-0.486-0.836
			c-3.021,0.726-5.808,2.27-8.033,4.438c-0.462,0.45,0.246,1.157,0.707,0.707c1.67-1.628,3.67-2.863,5.851-3.651
			c-0.661,0.72-1.322,1.44-1.983,2.16c-0.522,0.569-1.044,1.137-1.567,1.706c-0.475,0.517-1.109,1.039-1.428,1.672
			c-0.275,0.546-0.185,1.269,0.461,1.495c0.576,0.202,1.141-0.133,1.661-0.341c1.193-0.477,2.444-0.808,3.715-0.998
			c0.205,0.267,0.75,0.287,0.918-0.141l0.122-0.309c0.111-0.283-0.178-0.667-0.482-0.633c-1.225,0.139-2.432,0.386-3.603,0.774
			c-0.562,0.187-1.096,0.442-1.652,0.639c-0.065,0.023-0.195,0.076-0.284,0.07c0.009-0.036,0.014-0.073,0.034-0.105
			C194.666,412.081,194.918,411.873,195.11,411.664z"/>
		<path style="fill:#303351;" d="M206.36,426.149c-5.682-1.335-12.028-2.217-17.271,1.002c-0.547,0.336-0.046,1.201,0.505,0.864
			c5.007-3.074,11.082-2.175,16.5-0.901C206.72,427.26,206.987,426.296,206.36,426.149z"/>
		<g>
			<path style="opacity:0.8;fill:#2E333F;" d="M304.794,208.31c-1.858,1.158-3.308,3.257-2.589,5.113
				c0.284,0.738,1.014,1.546,2,1.457c1.141-0.105,1.323-1.332,1.748-2.081c0.27-0.472,0.62-0.907,1.044-1.287
				c0.143-0.127,0.3-0.249,0.456-0.364c1.001-0.658,2.104-1.4,2.285-2.557c0.146-0.935-0.579-1.525-1.547-1.525
				c-0.557,0.001-1.137,0.192-1.674,0.397C305.922,207.691,305.339,207.968,304.794,208.31z"/>
			<circle style="opacity:0.8;fill:#2E333F;" cx="302.372" cy="202.039" r="2.52"/>
			<path style="fill:#303351;" d="M311.228,210.236c1.385,0.95,1.845,2.822,1.095,4.3c-0.044,0.087-0.092,0.164-0.144,0.247
				c-0.107,0.175-0.297,0.279-0.505,0.274c-0.204-0.012-0.401-0.13-0.502-0.31c-0.083-0.161-0.075-0.358,0.025-0.518
				c0.041-0.062,0.07-0.12,0.103-0.186c0.233-0.459,0.316-0.966,0.224-1.452c-0.102-0.574-0.464-1.105-0.981-1.459
				c-0.124-0.081-0.203-0.213-0.221-0.359c-0.025-0.168,0.024-0.336,0.13-0.456C310.642,210.094,310.959,210.063,311.228,210.236z"
				/>
			<path style="fill:#303351;" d="M308.534,205.303c-0.219-0.001-0.415-0.119-0.509-0.295c-0.09-0.165-0.082-0.362,0.01-0.526
				c0.022-0.044,0.052-0.084,0.074-0.127c0.211-0.415,0.254-0.897,0.121-1.339c-0.143-0.494-0.477-0.883-0.928-1.112
				c-0.284-0.144-0.395-0.466-0.247-0.757c0.059-0.135,0.166-0.218,0.286-0.276c0.15-0.061,0.311-0.053,0.464,0.025
				c0.739,0.366,1.315,1.052,1.53,1.82c0.197,0.713,0.119,1.479-0.21,2.127l-0.092,0.182
				C308.921,205.207,308.734,205.305,308.534,205.303z"/>
			<path style="fill:#303351;" d="M314.835,210.195c0.443-0.005,0.767,0.3,0.819,0.734c0.089,0.741,0.109,1.488,0.06,2.232
				c-0.014,0.211-0.046,0.389-0.191,0.554c-0.127,0.145-0.347,0.263-0.543,0.265c-0.198,0.002-0.407-0.051-0.554-0.191
				c-0.141-0.134-0.278-0.339-0.265-0.543c0.049-0.745,0.029-1.492-0.06-2.232c-0.022-0.186,0.07-0.416,0.191-0.554
				C314.419,210.314,314.638,210.197,314.835,210.195z"/>
			<path style="fill:#303351;" d="M311.531,200.472c0.507,0.72,0.963,1.474,1.366,2.256c0.099,0.193,0.162,0.372,0.116,0.593
				c-0.038,0.183-0.164,0.387-0.327,0.486c-0.174,0.106-0.389,0.168-0.593,0.116c-0.183-0.046-0.396-0.151-0.486-0.327
				c-0.403-0.783-0.859-1.536-1.366-2.256c-0.234-0.332-0.143-0.864,0.21-1.079C310.817,200.038,311.28,200.116,311.531,200.472z"/>
			<path style="fill:#FFFFFF;" d="M297.526,206.446c-0.699,0.966-0.867,2.247-0.315,3.329c0.547,1.06,1.739,1.815,2.94,1.408
				c0.586-0.191,1.007-0.734,1.002-1.358c-0.002-0.589-0.304-1.108-0.646-1.581c-0.019-0.023-0.045-0.039-0.072-0.056
				c0.342-0.438,0.75-0.828,0.9-1.389c0.198-0.704-0.03-1.489-0.769-1.761C299.441,204.626,298.146,205.585,297.526,206.446z"/>
		</g>
		<path style="fill:#FFC69F;" d="M268.46,274.25c-0.66-1.31-1.46-2.54-2.29-3.75c-1.22-1.79-2.52-3.53-3.53-5.44
			c-1.27-2.39-2.05-5.26-1.59-7.85c-9.65-1.89-19.19-4.33-28.57-7.3c-0.083-0.078-0.166-0.154-0.249-0.232
			c-2.992-6.647-9.902-10.946-17.258-10.371c-0.802,0.063-1.809,0.158-2.289,0.909c-0.061,0.096-0.087,0.204-0.124,0.308
			c-0.19,0.305-0.221,0.724-0.1,1.046c-0.45-0.08-0.89-0.08-1.3,0.1c-1.07,0.45-1.39,1.92-0.95,3.01c-0.69,0.21-1.13,0.98-1.16,1.72
			c-0.009,0.305,0.43,1.29,0.6,1.727c-0.369-0.017-0.736,0.015-1.081,0.15c-0.729,0.285-1.229,0.935-1.349,1.707
			c-0.087,0.562,0.013,1.064,0.213,1.524c-0.016,0.034-0.025,0.067,0.007,0.102c0.019,0.023,0.044,0.043,0.064,0.065
			c0.218,0.433,0.533,0.822,0.892,1.178c0.032,0.033,0.067,0.063,0.099,0.095c0.071,0.068,0.139,0.139,0.213,0.204
			c0.17,0.155,0.344,0.305,0.523,0.443c-0.358,1.428,0.307,3.048,1.398,4.085c1.27,1.19,2.99,1.76,4.67,2.22
			c1.28,0.34,2.58,0.64,3.88,0.89c3.72,0.72,7.52,1.05,11.3,0.98c1.51,0.33,3,0.79,4.43,1.4c11.39,4.83,22.94,9.28,34.64,13.32
			C269.17,275.75,268.82,274.98,268.46,274.25z"/>
		<path style="fill:#303351;" d="M261.228,256.545c-9.556-2.458-19.112-4.916-28.667-7.373c-0.029-0.008-0.053-0.001-0.081-0.004
			c-1.833-2.951-3.797-5.978-6.798-7.86c-3.098-1.943-6.905-2.493-10.496-2.645c-0.87-0.037-1.829,0.013-2.532,0.591
			c-0.532,0.438-0.86,1.132-0.747,1.807c-0.246-0.001-0.491,0.018-0.733,0.09c-1.327,0.398-1.921,1.869-1.653,3.151
			c0.018,0.086,0.05,0.164,0.074,0.246c-0.776,0.952-0.917,2.302-0.579,3.47c0.021,0.073,0.051,0.142,0.076,0.213
			c-0.55,0.064-1.079,0.298-1.447,0.728c-0.624,0.729-0.709,1.72-0.301,2.573c0.348,0.727,0.996,1.333,1.609,1.869
			c-0.359,0.533-0.472,1.21-0.373,1.849c0.14,0.905,0.731,1.679,1.363,2.308c1.332,1.323,3.02,2.27,4.834,2.746
			c0.623,0.163,0.889-0.801,0.266-0.964c-1.511-0.396-2.921-1.138-4.078-2.191c-0.772-0.702-1.909-2.081-1.239-3.12
			c0.593,0.469,1.209,0.908,1.863,1.286c0.558,0.323,1.062-0.541,0.505-0.863c-0.692-0.4-1.379-0.863-2.017-1.382
			c-0.044-0.055-0.097-0.103-0.159-0.139c-0.496-0.417-0.965-0.864-1.363-1.358c-0.395-0.49-0.637-1.102-0.329-1.701
			c0.259-0.505,0.796-0.717,1.329-0.644c0.55,0.927,1.341,1.721,2.111,2.458c0.465,0.445,1.173-0.261,0.707-0.707
			c-0.718-0.687-1.482-1.427-1.983-2.307c-0.015-0.081-0.049-0.155-0.105-0.22c-0.086-0.169-0.183-0.333-0.245-0.514
			c-0.258-0.75-0.287-1.617,0.053-2.324c0.605,0.907,1.542,1.6,2.427,2.219c0.528,0.37,1.029-0.497,0.505-0.863
			c-0.866-0.606-1.85-1.301-2.314-2.283c0.023-0.158-0.04-0.313-0.158-0.423c-0.022-0.076-0.051-0.147-0.066-0.226
			c-0.116-0.597,0.045-1.282,0.523-1.687c0.574-0.486,1.374-0.272,2.026-0.095c2.794,0.759,5.578,1.56,8.366,2.34
			c0.621,0.174,0.886-0.791,0.266-0.964c-1.812-0.507-3.625-1.014-5.437-1.521c-0.87-0.243-1.74-0.487-2.61-0.73
			c-0.209-0.058-0.423-0.117-0.639-0.17c-0.006-0.02-0.003-0.037-0.011-0.058c-0.503-1.193,1.102-1.51,1.914-1.498
			c1.007,0.015,2.024,0.113,3.023,0.23c1.982,0.233,3.987,0.659,5.807,1.499c3.733,1.723,5.962,5.16,8.055,8.536
			c0.131,0.211,0.339,0.263,0.527,0.219c9.555,2.458,19.111,4.915,28.666,7.373C261.586,257.669,261.852,256.705,261.228,256.545z"
			/>
		<path style="fill:#303351;" d="M250.575,237.109c-7.983-3.683-15.967-7.367-23.95-11.05c-0.58-0.268-1.089,0.594-0.505,0.863
			c7.983,3.683,15.967,7.367,23.95,11.05C250.651,238.24,251.16,237.379,250.575,237.109z"/>
		<path style="fill:#303351;" d="M239.444,226.545c-2.845-1.012-5.691-2.024-8.536-3.036c-0.607-0.216-0.869,0.75-0.266,0.964
			c2.845,1.012,5.691,2.024,8.536,3.036C239.785,227.725,240.047,226.759,239.444,226.545z"/>
		<path style="fill:#303351;" d="M241.498,103.686c0.294-0.401,0.402-0.913,0.34-1.401c0.693,0.129,1.396,0.112,2.015-0.316
			c0.657-0.454,0.883-1.269,0.679-1.996c0.232-0.113,0.464-0.226,0.696-0.339c0.904,1.767,2.388,3.926,4.571,3.875
			c0.642-0.015,0.529-1.009-0.112-0.994c-1.213,0.028-2.111-1.087-2.75-1.984c-0.637-0.894-1.132-1.879-1.483-2.919
			c-0.354-1.049-0.496-2.107-0.572-3.206c-0.072-1.042-0.522-1.642-1.534-1.938c-1.253-0.367-2.526-0.677-3.788-1.014
			c-0.549-0.147-1.4-0.252-1.751-0.761c-0.613-0.89,0.676-1.011,1.247-0.991c2.587,0.091,5.174,0.229,7.76,0.344
			c0.636,0.028,0.799-0.959,0.156-0.988c-2.425-0.107-4.85-0.215-7.275-0.322c-0.913-0.04-2.021-0.175-2.692,0.597
			c-0.571,0.656-0.39,1.607,0.203,2.183c0.739,0.719,1.962,0.864,2.916,1.119l1.68,0.449c0.52,0.139,1.441,0.206,1.84,0.592
			c0.335,0.324,0.243,1.003,0.278,1.429c0.044,0.534,0.126,1.064,0.243,1.586c0.157,0.697,0.39,1.371,0.662,2.03
			c-0.302,0.147-0.604,0.294-0.905,0.441c-1.689-1.877-3.378-3.754-5.067-5.631c-0.181-0.201-0.464-0.281-0.698-0.111
			c-0.201,0.146-0.292,0.497-0.111,0.698c1.734,1.927,3.469,3.855,5.203,5.782c0.071,0.078,0.159,0.131,0.252,0.165
			c0.244,0.413,0.085,0.939-0.34,1.158c-0.572,0.294-1.255,0.098-1.841-0.09c-0.031-0.027-0.06-0.056-0.096-0.078
			c-2.231-1.384-4.23-3.143-5.902-5.166c-0.408-0.495-1.22,0.09-0.809,0.588c1.716,2.078,3.745,3.848,6.013,5.297
			c0.012,0.021,0.018,0.045,0.035,0.063c0.303,0.326,0.419,0.823,0.161,1.216c-0.25,0.382-0.781,0.493-1.182,0.313
			c-0.588-0.263-1.001,0.648-0.413,0.911C239.936,104.638,240.965,104.412,241.498,103.686z"/>
	</g>
</g>
</svg>
